<?xml version="1.0" encoding="utf-8"?><!-- Generator: Iparigrafika Gear Generator by Abel Vincze http://geargenerator.com/ --><svg version="1.2" class="svggear" xmlns="http://www.w3.org/2000/svg" xmlns:xlink="http://www.w3.org/1999/xlink" x="0px" y="0px" width="88px" height="88px" viewBox="-44 -44 88 88" overflow="scroll" xml:space="preserve"><polygon id="gearpoly1" data-id="1" class="gear" fill="#ddd" stroke="#444" stroke-width="1" stroke-miterlimit="10" points="16.875,0 27.8482,0 27.9498,-0.0062 28.1853,-0.0359 28.5515,-0.1079 29.0427,-0.2403 29.6518,-0.4509 30.3697,-0.7564 31.1853,-1.1729 32.0863,-1.7152 33.0583,-2.3968 34.0859,-3.2299 35.1521,-4.2252 36.2388,-5.3917 37.3268,-6.7366 38.3963,-8.2653 39.4263,-9.9811 40.3958,-11.8855 41.283,-13.9778 40.5238,-16.0466 38.4937,-17.0682 36.5224,-17.8933 34.627,-18.5354 32.8225,-19.0093 31.1228,-19.3311 29.5395,-19.5176 28.0826,-19.5869 26.76,-19.5575 25.5778,-19.4485 24.54,-19.2792 23.6486,-19.0692 22.9035,-18.8378 22.3028,-18.6043 21.8425,-18.3876 21.5168,-18.2056 21.3179,-18.0759 21.2365,-18.0148 12.8685,-10.9164 5.2147,-16.0491 8.6055,-26.4852 8.6311,-26.5837 8.6756,-26.8169 8.7203,-27.1874 8.7462,-27.6955 8.7341,-28.3399 8.6653,-29.117 8.5213,-30.0215 8.284,-31.0459 7.9361,-32.181 7.4613,-33.4157 6.8442,-34.7373 6.0706,-36.1313 5.1277,-37.5817 4.0043,-39.0711 2.6908,-40.581 1.1792,-42.0915 -0.5365,-43.5819 -2.7387,-43.4991 -4.3376,-41.884 -5.7315,-40.2642 -6.9279,-38.6599 -7.9362,-37.0903 -8.7675,-35.5732 -9.4342,-34.125 -9.9503,-32.7608 -10.331,-31.4939 -10.5926,-30.3359 -10.7523,-29.2966 -10.828,-28.3839 -10.8382,-27.6038 -10.8018,-26.9603 -10.7379,-26.4555 -10.6655,-26.0895 -10.6036,-25.8603 -10.5707,-25.764 -6.4055,-15.612 -13.6522,-9.9189 -22.5297,-16.3687 -22.6155,-16.4235 -22.8235,-16.5379 -23.162,-16.6949 -23.6373,-16.8765 -24.2539,-17.0641 -25.0142,-17.2389 -25.9189,-17.3814 -26.9665,-17.4722 -28.1535,-17.4922 -29.4746,-17.4221 -30.9221,-17.2436 -32.487,-16.9386 -34.1577,-16.4901 -35.9214,-15.882 -37.7633,-15.0993 -39.667,-14.1284 -41.6147,-12.9573 -42.2164,-10.8373 -41.1745,-8.8176 -40.0647,-6.9914 -38.9086,-5.3577 -37.7274,-3.9137 -36.5414,-2.6544 -35.3701,-1.5728 -34.2322,-0.6604 -33.145,0.0932 -32.1244,0.6999 -31.1853,1.1729 -30.3407,1.527 -29.6019,1.7777 -28.9787,1.942 -28.4789,2.0371 -28.1084,2.0814 -27.8713,2.0933 -27.7695,2.0918 -16.8273,1.2676 -13.6522,9.9189 -22.5296,16.3688 -22.6082,16.4335 -22.7813,16.596 -23.0352,16.8694 -23.3548,17.2653 -23.7238,17.7937 -24.125,18.4628 -24.54,19.2792 -24.9502,20.2474 -25.3359,21.3702 -25.6776,22.6482 -25.9551,24.0801 -26.1486,25.6626 -26.2384,27.3902 -26.205,29.2555 -26.0298,31.2491 -25.6947,33.3596 -25.1827,35.5739 -23.3525,36.8012 -21.1096,36.4344 -19.0299,35.9433 -17.119,35.3487 -15.3806,34.6715 -13.8164,33.9327 -12.4258,33.153 -11.2064,32.3527 -10.1537,31.5515 -9.2614,30.7684 -8.5213,30.0215 -7.9236,29.3276 -7.4568,28.7025 -7.108,28.1605 -6.863,27.7146 -6.7065,27.3759 -6.6218,27.154 -6.5918,27.0568 -3.9944,16.3954 5.2147,16.0491 8.6056,26.4852 8.6428,26.5799 8.7439,26.7948 8.9255,27.1207 9.2032,27.547 9.5917,28.0612 10.1042,28.6495 10.7523,29.2966 11.5464,29.9858 12.495,30.6997 13.6049,31.4195 14.881,32.1259 16.3262,32.799 17.9415,33.4182 19.7259,33.9629 21.676,34.4123 23.7868,34.7458 26.0509,34.9431 27.7838,33.5817 28.128,31.3353 28.3036,29.2056 28.3285,27.2044 28.2217,25.3419 28.0024,23.6259 27.6906,22.0625 27.3063,20.6554 26.8696,19.4067 26.4006,18.3161 25.9189,17.3814 25.4437,16.5985 24.9934,15.9614 24.5857,15.4622 24.2373,15.0914 23.9636,14.8378 23.7788,14.6888 23.6955,14.6302 14.3587,8.8654 "/><g class="guides"><polyline fill="none" stroke="#444" stroke-width="0.5" stroke-miterlimit="10" points="10,0 -10,0"/><polyline fill="none" stroke="#444" stroke-width="0.5" stroke-miterlimit="10" points="0,10 0,-10"/></g><circle fill="#c00" class="firstmarker" stroke="none" stroke-miterlimit="10" cx="29.3366" cy="-10.767" r="4.9063"/><g class="geartext"><g class="text"><polyline fill="none" stroke="#444" stroke-width="0.5" stroke-linecap="square" stroke-miterlimit="1"  points="-8.83 -9.34 -9.12 -9.06 -9.4 -8.77 -9.67 -8.48 -9.93 -8.17 "/><polyline fill="none" stroke="#444" stroke-width="0.5" stroke-linecap="square" stroke-miterlimit="1"  points="-8.81 -8.22 -9.99 -9.32 "/><polyline fill="none" stroke="#444" stroke-width="0.5" stroke-linecap="square" stroke-miterlimit="1"  points="-9.38 -9.93 -9.41 -9.35 -9.4 -8.77 -9.37 -8.21 -9.31 -7.66 "/><polyline fill="none" stroke="#444" stroke-width="0.5" stroke-linecap="square" stroke-miterlimit="1"  points="-8.28 -8.76 -8.84 -8.78 -9.4 -8.77 -9.97 -8.74 -10.55 -8.68 "/><polyline fill="none" stroke="#444" stroke-width="0.5" stroke-linecap="square" stroke-miterlimit="1"  points="-8.75 -10.49 -8.66 -11.08 -7.18 -9.18 "/><polyline fill="none" stroke="#444" stroke-width="0.5" stroke-linecap="square" stroke-miterlimit="1"  points="-6.89 -9.4 -7.18 -9.18 -7.46 -8.95 "/><polyline fill="none" stroke="#444" stroke-width="0.5" stroke-linecap="square" stroke-miterlimit="1"  points="-4 -13.48 -3.32 -11.17 -3.85 -11.63 -4.42 -12.07 -5.02 -12.49 -5.65 -12.88 -4.68 -10.67 "/><polyline fill="none" stroke="#444" stroke-width="0.5" stroke-linecap="square" stroke-miterlimit="1"  points="-1.34 -13.19 -1.75 -13.14 -2.16 -13.08 -2.57 -13.01 -2.97 -12.92 "/><polyline fill="none" stroke="#444" stroke-width="0.5" stroke-linecap="square" stroke-miterlimit="1"  points="-1.26 -12.39 -1.64 -12.35 -2.03 -12.29 -2.41 -12.22 -2.79 -12.14 "/><polyline fill="none" stroke="#444" stroke-width="0.5" stroke-linecap="square" stroke-miterlimit="1"  points="1.21 -14.01 0.78 -14.04 0.34 -14.06 -0.1 -14.06 -0.54 -14.05 -0.51 -13.25 -0.1 -13.26 0.32 -13.26 0.73 -13.24 1.11 -12.81 1.04 -12.01 0.64 -11.63 0.28 -11.65 -0.09 -11.65 -0.46 -12.04 "/><polyline fill="none" stroke="#444" stroke-width="0.5" stroke-linecap="square" stroke-miterlimit="1"  points="3.86 -12.26 4.24 -12.14 4.62 -12 4.99 -11.85 5.53 -12.05 5.7 -12.42 5.46 -12.96 5.05 -13.12 4.64 -13.27 4.23 -13.41 3.5 -11.11 "/><polyline fill="none" stroke="#444" stroke-width="0.5" stroke-linecap="square" stroke-miterlimit="1"  points="5.51 -10.27 6.27 -11.68 "/><polyline fill="none" stroke="#444" stroke-width="0.5" stroke-linecap="square" stroke-miterlimit="1"  points="6.46 -12.04 6.65 -12.39 "/><polyline fill="none" stroke="#444" stroke-width="0.5" stroke-linecap="square" stroke-miterlimit="1"  points="7.58 -9.37 7.04 -9.28 6.98 -9.83 8.14 -11.46 "/><polyline fill="none" stroke="#444" stroke-width="0.5" stroke-linecap="square" stroke-miterlimit="1"  points="8.34 -10.31 8.01 -10.56 7.68 -10.81 7.34 -11.04 6.99 -11.27 "/><polyline fill="none" stroke="#444" stroke-width="0.5" stroke-linecap="square" stroke-miterlimit="1"  points="8.89 -7.53 8.65 -7.81 8.4 -8.07 8.14 -8.33 8.15 -8.88 8.69 -9.47 9.27 -9.48 9.56 -9.19 9.84 -8.89 10.11 -8.57 "/><polyline fill="none" stroke="#444" stroke-width="0.5" stroke-linecap="square" stroke-miterlimit="1"  points="9.99 -7.44 10.54 -7.36 11.1 -7.25 11.33 -6.89 11.19 -6.34 10.14 -5.75 "/><polyline fill="none" stroke="#444" stroke-width="0.5" stroke-linecap="square" stroke-miterlimit="1"  points="9.34 -6.96 11.27 -8.41 "/><polyline fill="none" stroke="#444" stroke-width="0.5" stroke-linecap="square" stroke-miterlimit="1"  points="11.14 -3.41 11.24 -3.06 11.33 -2.71 11.41 -2.35 11.88 -2.06 13.46 -2.34 13.77 -2.84 13.68 -3.27 13.57 -3.69 13.45 -4.11 "/><polyline fill="none" stroke="#444" stroke-width="0.5" stroke-linecap="square" stroke-miterlimit="1"  points="13.57 -3.69 11.24 -3.06 "/><polyline fill="none" stroke="#444" stroke-width="0.5" stroke-linecap="square" stroke-miterlimit="1"  points="13.26 0.21 13.26 -0.21 13.24 -0.62 13.22 -1.03 13.18 -1.45 "/><polyline fill="none" stroke="#444" stroke-width="0.5" stroke-linecap="square" stroke-miterlimit="1"  points="12.45 0.19 12.45 -0.19 12.44 -0.58 12.42 -0.97 12.38 -1.36 "/><polyline fill="none" stroke="#444" stroke-width="0.5" stroke-linecap="square" stroke-miterlimit="1"  points="11.88 2.06 11.54 1.63 11.58 1.27 12.02 0.94 13.62 1.07 13.98 1.54 13.92 1.97 13.46 2.34 11.88 2.06 "/><polyline fill="none" stroke="#444" stroke-width="0.5" stroke-linecap="square" stroke-miterlimit="1"  points="11.72 2.8 11.33 2.71 "/><polyline fill="none" stroke="#444" stroke-width="0.5" stroke-linecap="square" stroke-miterlimit="1"  points="12.29 3.76 12.17 4.14 12.04 4.52 11.89 4.9 11.36 5.1 11 4.94 10.77 4.44 10.91 4.1 11.03 3.76 11.53 3.53 12.68 3.88 12.93 4.4 13.16 4.95 13 5.35 "/><polyline fill="none" stroke="#444" stroke-width="0.5" stroke-linecap="square" stroke-miterlimit="1"  points="12.09 6.36 12.23 6.93 12.01 7.31 11.78 7.68 11.2 7.82 10.87 7.59 10.77 7.03 10.21 7.13 9.88 6.9 9.76 6.37 9.95 6.06 10.14 5.75 10.67 5.61 "/><polyline fill="none" stroke="#444" stroke-width="0.5" stroke-linecap="square" stroke-miterlimit="1"  points="10.98 6.69 10.77 7.03 "/><polyline fill="none" stroke="#444" stroke-width="0.5" stroke-linecap="square" stroke-miterlimit="1"  points="8.69 9.47 8.39 9.74 8.09 10 7.77 10.24 7.68 10.81 7.91 11.14 8.5 11.2 8.84 10.93 9.18 10.65 9.51 10.36 7.88 8.58 "/><polyline fill="none" stroke="#444" stroke-width="0.5" stroke-linecap="square" stroke-miterlimit="1"  points="5.53 12.05 5.9 11.87 6.27 11.68 6.63 11.48 6.99 11.27 "/><polyline fill="none" stroke="#444" stroke-width="0.5" stroke-linecap="square" stroke-miterlimit="1"  points="5.19 11.32 5.55 11.15 5.89 10.97 6.23 10.78 6.57 10.58 "/><polyline fill="none" stroke="#444" stroke-width="0.5" stroke-linecap="square" stroke-miterlimit="1"  points="4.24 12.14 4.48 11.62 4.33 11.25 3.85 11 3.5 11.11 3.15 11.22 2.9 11.7 2.99 12.09 3.48 12.38 3.86 12.26 4.24 12.14 4.77 12.37 4.91 12.75 4.64 13.27 4.23 13.41 3.8 13.54 3.28 13.26 3.19 12.87 3.48 12.38 "/><polyline fill="none" stroke="#444" stroke-width="0.5" stroke-linecap="square" stroke-miterlimit="1"  points="0.31 12.85 -0.09 12.86 -0.5 12.85 -0.9 12.83 -1.34 13.19 -1.38 13.59 -0.98 14.03 -0.54 14.05 -0.1 14.06 0.34 14.06 0.28 11.65 "/><polyline fill="none" stroke="#444" stroke-width="0.5" stroke-linecap="square" stroke-miterlimit="1"  points="-1.9 11.5 -2.03 12.29 -2.57 13.01 -3.15 13.7 -3.37 12.82 -3.54 11.94 -3.32 11.17 "/><polyline fill="none" stroke="#444" stroke-width="0.5" stroke-linecap="square" stroke-miterlimit="1"  points="-2.03 12.29 -2.41 12.22 -2.79 12.14 -3.17 12.05 -3.54 11.94 "/><polyline fill="none" stroke="#444" stroke-width="0.5" stroke-linecap="square" stroke-miterlimit="1"  points="-6.08 11.78 -5.71 11.97 -5.33 12.14 -4.95 12.3 -4.56 12.45 "/><polyline fill="none" stroke="#444" stroke-width="0.5" stroke-linecap="square" stroke-miterlimit="1"  points="-5.71 11.07 -5.36 11.24 -5.01 11.41 -4.65 11.56 -4.28 11.7 "/><polyline fill="none" stroke="#444" stroke-width="0.5" stroke-linecap="square" stroke-miterlimit="1"  points="-7.18 9.18 -6.89 9.4 -6.59 9.61 -6.29 9.81 -5.98 10 -6.39 10.69 -6.94 10.83 -7.27 10.6 -7.6 10.37 -8.17 10.45 -8.41 10.76 -8.31 11.34 -7.95 11.6 -7.59 11.84 -7.01 11.73 "/><polyline fill="none" stroke="#444" stroke-width="0.5" stroke-linecap="square" stroke-miterlimit="1"  points="-9.34 10.52 -9.66 10.22 -9.98 9.91 -10.28 9.6 -10.57 9.27 -9.4 8.77 -8.27 8.21 "/></g></g><g class="guides gearguides" opacity="0.2"><circle class="pitch" fill="none" stroke="#f00" stroke-miterlimit="10" cx="0" cy="0" r="31.25"/><circle class="outer" fill="none" stroke="#ccc" stroke-miterlimit="10" stroke-dasharray="2,2" cx="0" cy="0" r="43.75"/><circle class="base" fill="none" stroke="#00f" stroke-miterlimit="10" stroke-dasharray="2,2" cx="0" cy="0" r="27.84"/></g></svg>