  0
SECTION
  2
HEADER
  9
$ACADVER
  1
AC1014
  9
$HANDSEED
  5
FFFF
  9
$MEASUREMENT
 70
     1
  0
ENDSEC
  0
SECTION
  2
TABLES
  0
TABLE
  2
VPORT
  5
8
330
0
100
AcDbSymbolTable
 70
     4
  0
VPORT
  5
2E
330
8
100
AcDbSymbolTableRecord
100
AcDbViewportTableRecord
  2
*ACTIVE
 70
     0
 10
0.0
 20
0.0
 11
1.0
 21
1.0
 12
210.0
 22
148.5
 13
0.0
 23
0.0
 14
10.0
 24
10.0
 15
10.0
 25
10.0
 16
0.0
 26
0.0
 36
1.0
 17
0.0
 27
0.0
 37
0.0
 40
341.0
 41
1.24
 42
50.0
 43
0.0
 44
0.0
 50
0.0
 51
0.0
 71
     0
 72
   100
 73
     1
 74
     3
 75
     0
 76
     0
 77
     0
 78
     0
  0
ENDTAB
  0
TABLE
  2
LTYPE
  5
5
330
0
100
AcDbSymbolTable
 70
     1
  0
LTYPE
  5
14
330
5
100
AcDbSymbolTableRecord
100
AcDbLinetypeTableRecord
  2
BYBLOCK
 70
     0
  3

 72
    65
 73
     0
 40
0.0
  0
LTYPE
  5
15
330
5
100
AcDbSymbolTableRecord
100
AcDbLinetypeTableRecord
  2
BYLAYER
 70
     0
  3

 72
    65
 73
     0
 40
0.0
  0
LTYPE
  5
16
330
5
100
AcDbSymbolTableRecord
100
AcDbLinetypeTableRecord
  2
CONTINUOUS
 70
     0
  3
Solid line
 72
    65
 73
     0
 40
0.0
  0
ENDTAB
  0
TABLE
  2
LAYER
  5
2
100
AcDbSymbolTable
 70
7
  0
LAYER
  5
50
100
AcDbSymbolTableRecord
100
AcDbLayerTableRecord
  2
0
 70
0
  6
CONTINUOUS
  0
LAYER
  5
51
100
AcDbSymbolTableRecord
100
AcDbLayerTableRecord
  2
mechanical
 70
0
  6
CONTINUOUS
  0
LAYER
  5
52
100
AcDbSymbolTableRecord
100
AcDbLayerTableRecord
  2
PCB
 70
0
  6
CONTINUOUS
  0
LAYER
  5
53
100
AcDbSymbolTableRecord
100
AcDbLayerTableRecord
  2
Drawing_Layer
 70
0
  6
CONTINUOUS
  0
LAYER
  5
54
100
AcDbSymbolTableRecord
100
AcDbLayerTableRecord
  2
Legs
 70
0
  6
CONTINUOUS
  0
LAYER
  5
55
100
AcDbSymbolTableRecord
100
AcDbLayerTableRecord
  2
Body
 70
0
  6
CONTINUOUS
  0
LAYER
  5
56
100
AcDbSymbolTableRecord
100
AcDbLayerTableRecord
  2
Face
 70
0
  6
CONTINUOUS
  0
ENDTAB
  0
TABLE
  2
STYLE
  5
3
330
0
100
AcDbSymbolTable
 70
     1
  0
STYLE
  5
11
330
3
100
AcDbSymbolTableRecord
100
AcDbTextStyleTableRecord
  2
STANDARD
 70
     0
 40
0.0
 41
1.0
 50
0.0
 71
     0
 42
2.5
  3
txt
  4

  0
ENDTAB
  0
TABLE
  2
VIEW
  5
6
330
0
100
AcDbSymbolTable
 70
     0
  0
ENDTAB
  0
TABLE
  2
UCS
  5
7
330
0
100
AcDbSymbolTable
 70
     0
  0
ENDTAB
  0
TABLE
  2
APPID
  5
9
330
0
100
AcDbSymbolTable
 70
     2
  0
APPID
  5
12
330
9
100
AcDbSymbolTableRecord
100
AcDbRegAppTableRecord
  2
ACAD
 70
     0
  0
ENDTAB
  0
TABLE
  2
DIMSTYLE
  5
A
330
0
100
AcDbSymbolTable
 70
     1
  0
DIMSTYLE
105
27
330
A
100
AcDbSymbolTableRecord
100
AcDbDimStyleTableRecord
  2
ISO-25
 70
     0
  3

  4

  5

  6

  7

 40
1.0
 41
2.5
 42
0.625
 43
3.75
 44
1.25
 45
0.0
 46
0.0
 47
0.0
 48
0.0
140
2.5
141
2.5
142
0.0
143
0.03937007874016
144
1.0
145
0.0
146
1.0
147
0.625
 71
     0
 72
     0
 73
     0
 74
     0
 75
     0
 76
     0
 77
     1
 78
     8
170
     0
171
     3
172
     1
173
     0
174
     0
175
     0
176
     0
177
     0
178
     0
270
     2
271
     2
272
     2
273
     2
274
     3
340
11
275
     0
280
     0
281
     0
282
     0
283
     0
284
     8
285
     0
286
     0
287
     3
288
     0
  0
ENDTAB
  0
TABLE
  2
BLOCK_RECORD
  5
1
330
0
100
AcDbSymbolTable
 70
     1
  0
BLOCK_RECORD
  5
1F
330
1
100
AcDbSymbolTableRecord
100
AcDbBlockTableRecord
  2
*MODEL_SPACE
  0
BLOCK_RECORD
  5
1B
330
1
100
AcDbSymbolTableRecord
100
AcDbBlockTableRecord
  2
*PAPER_SPACE
  0
ENDTAB
  0
ENDSEC
  0
SECTION
  2
BLOCKS
  0
BLOCK
  5
20
330
1F
100
AcDbEntity
  8
0
100
AcDbBlockBegin
  2
*MODEL_SPACE
 70
     0
 10
0.0
 20
0.0
 30
0.0
  3
*MODEL_SPACE
  1

  0
ENDBLK
  5
21
330
1F
100
AcDbEntity
  8
0
100
AcDbBlockEnd
  0
BLOCK
  5
1C
330
1B
100
AcDbEntity
 67
     1
  8
0
100
AcDbBlockBegin
  2
*PAPER_SPACE
  1

  0
ENDBLK
  5
1D
330
1B
100
AcDbEntity
 67
     1
  8
0
100
AcDbBlockEnd
  0
ENDSEC
  0
SECTION
  2
ENTITIES
  0
LWPOLYLINE
  5
100
100
AcDbEntity
  8
PCB
 62
7
100
AcDbPolyline
 90
5
 70
1
 10
0.140628
 20
121.859375
 30
0.0
 10
61.859371
 20
121.859375
 30
0.0
 10
61.859371
 20
0.140628
 30
0.0
 10
0.140628
 20
0.140628
 30
0.0
 10
0.140628
 20
121.859375
 30
0.0
  0
LWPOLYLINE
  5
101
100
AcDbEntity
  8
PCB
 62
7
100
AcDbPolyline
 90
5
 70
1
 10
29.634228
 20
89.396772
 30
0.0
 10
32.365771
 20
89.396772
 30
0.0
 10
32.365771
 20
46.665228
 30
0.0
 10
29.634228
 20
46.665228
 30
0.0
 10
29.634228
 20
89.396772
 30
0.0
  0
LWPOLYLINE
  5
102
100
AcDbEntity
  8
PCB
 62
7
100
AcDbPolyline
 90
5
 70
1
 10
39.634231
 20
89.396772
 30
0.0
 10
42.365774
 20
89.396772
 30
0.0
 10
42.365774
 20
46.665228
 30
0.0
 10
39.634231
 20
46.665228
 30
0.0
 10
39.634231
 20
89.396772
 30
0.0
  0
SPLINE
  5
103
100
AcDbEntity
  8
PCB
 62
1
100
AcDbSpline
 70
8
 71
3
 72
8
 73
4
 74
0
 40
0
 40
0
 40
0
 40
0
 40
1
 40
1
 40
1
 40
1
 10
7.297000
 20
31.313123
 30
0.0
 10
7.297000
 20
29.689969
 30
0.0
 10
8.612542
 20
28.374043
 30
0.0
 10
10.234979
 20
28.374043
 30
0.0
  0
SPLINE
  5
104
100
AcDbEntity
  8
PCB
 62
1
100
AcDbSpline
 70
8
 71
3
 72
8
 73
4
 74
0
 40
0
 40
0
 40
0
 40
0
 40
1
 40
1
 40
1
 40
1
 10
10.234979
 20
28.374043
 30
0.0
 10
10.728549
 20
28.379343
 30
0.0
 10
11.638346
 20
28.107997
 30
0.0
 10
11.579392
 20
27.245154
 30
0.0
  0
LWPOLYLINE
  5
105
100
AcDbEntity
  8
PCB
 62
7
100
AcDbPolyline
 90
5
 70
1
 10
19.634228
 20
89.396772
 30
0.0
 10
22.365771
 20
89.396772
 30
0.0
 10
22.365771
 20
46.665228
 30
0.0
 10
19.634228
 20
46.665228
 30
0.0
 10
19.634228
 20
89.396772
 30
0.0
  0
SPLINE
  5
106
100
AcDbEntity
  8
PCB
 62
1
100
AcDbSpline
 70
8
 71
3
 72
8
 73
4
 74
0
 40
0
 40
0
 40
0
 40
0
 40
1
 40
1
 40
1
 40
1
 10
11.579392
 20
19.424513
 30
0.0
 10
11.579392
 20
17.801357
 30
0.0
 10
12.894384
 20
16.485433
 30
0.0
 10
14.516818
 20
16.485433
 30
0.0
  0
LWPOLYLINE
  5
107
100
AcDbEntity
  8
PCB
 62
1
100
AcDbPolyline
 90
2
 70
1
 10
11.579392
 20
27.245154
 30
0.0
 10
11.579392
 20
19.424513
 30
0.0
  0
SPLINE
  5
108
100
AcDbEntity
  8
PCB
 62
1
100
AcDbSpline
 70
8
 71
3
 72
8
 73
4
 74
0
 40
0
 40
0
 40
0
 40
0
 40
1
 40
1
 40
1
 40
1
 10
22.838516
 20
16.485433
 30
0.0
 10
23.302173
 20
16.504273
 30
0.0
 10
24.007574
 20
16.112290
 30
0.0
 10
24.052292
 20
14.963528
 30
0.0
  0
SPLINE
  5
109
100
AcDbEntity
  8
PCB
 62
1
100
AcDbSpline
 70
8
 71
3
 72
8
 73
4
 74
0
 40
0
 40
0
 40
0
 40
0
 40
1
 40
1
 40
1
 40
1
 10
24.052292
 20
14.963528
 30
0.0
 10
24.106132
 20
13.341266
 30
0.0
 10
25.367831
 20
12.024999
 30
0.0
 10
26.990270
 20
12.024999
 30
0.0
  0
LWPOLYLINE
  5
10a
100
AcDbEntity
  8
PCB
 62
1
100
AcDbPolyline
 90
2
 70
1
 10
14.516818
 20
16.485433
 30
0.0
 10
22.838516
 20
16.485433
 30
0.0
  0
SPLINE
  5
10b
100
AcDbEntity
  8
PCB
 62
1
100
AcDbSpline
 70
8
 71
3
 72
8
 73
4
 74
0
 40
0
 40
0
 40
0
 40
0
 40
1
 40
1
 40
1
 40
1
 10
35.337323
 20
12.024999
 30
0.0
 10
36.959758
 20
12.024999
 30
0.0
 10
38.275301
 20
13.340372
 30
0.0
 10
38.275301
 20
14.963528
 30
0.0
  0
SPLINE
  5
10c
100
AcDbEntity
  8
PCB
 62
1
100
AcDbSpline
 70
8
 71
3
 72
8
 73
4
 74
0
 40
0
 40
0
 40
0
 40
0
 40
1
 40
1
 40
1
 40
1
 10
38.275301
 20
14.963528
 30
0.0
 10
38.276901
 20
16.277319
 30
0.0
 10
39.006246
 20
16.496613
 30
0.0
 10
39.495691
 20
16.485433
 30
0.0
  0
LWPOLYLINE
  5
10d
100
AcDbEntity
  8
PCB
 62
1
100
AcDbPolyline
 90
2
 70
1
 10
26.990270
 20
12.024999
 30
0.0
 10
35.337323
 20
12.024999
 30
0.0
  0
SPLINE
  5
10e
100
AcDbEntity
  8
PCB
 62
1
100
AcDbSpline
 70
8
 71
3
 72
8
 73
4
 74
0
 40
0
 40
0
 40
0
 40
0
 40
1
 40
1
 40
1
 40
1
 10
47.810774
 20
16.485433
 30
0.0
 10
49.432314
 20
16.539293
 30
0.0
 10
50.748200
 20
17.801357
 30
0.0
 10
50.748201
 20
19.424513
 30
0.0
  0
LWPOLYLINE
  5
10f
100
AcDbEntity
  8
PCB
 62
1
100
AcDbPolyline
 90
2
 70
1
 10
39.495691
 20
16.485433
 30
0.0
 10
47.810774
 20
16.485433
 30
0.0
  0
SPLINE
  5
110
100
AcDbEntity
  8
PCB
 62
1
100
AcDbSpline
 70
8
 71
3
 72
8
 73
4
 74
0
 40
0
 40
0
 40
0
 40
0
 40
1
 40
1
 40
1
 40
1
 10
50.748201
 20
27.173496
 30
0.0
 10
50.746301
 20
28.005720
 30
0.0
 10
51.624037
 20
28.396402
 30
0.0
 10
52.098678
 20
28.374043
 30
0.0
  0
SPLINE
  5
111
100
AcDbEntity
  8
PCB
 62
1
100
AcDbSpline
 70
8
 71
3
 72
8
 73
4
 74
0
 40
0
 40
0
 40
0
 40
0
 40
1
 40
1
 40
1
 40
1
 10
52.098678
 20
28.374043
 30
0.0
 10
53.720218
 20
28.427903
 30
0.0
 10
55.035554
 20
29.689963
 30
0.0
 10
55.035554
 20
31.313123
 30
0.0
  0
LWPOLYLINE
  5
112
100
AcDbEntity
  8
PCB
 62
1
100
AcDbPolyline
 90
2
 70
1
 10
50.748201
 20
19.424513
 30
0.0
 10
50.748201
 20
27.173496
 30
0.0
  0
SPLINE
  5
113
100
AcDbEntity
  8
PCB
 62
1
100
AcDbSpline
 70
8
 71
3
 72
8
 73
4
 74
0
 40
0
 40
0
 40
0
 40
0
 40
1
 40
1
 40
1
 40
1
 10
55.035554
 20
39.664584
 30
0.0
 10
55.035554
 20
41.287741
 30
0.0
 10
53.721111
 20
42.603114
 30
0.0
 10
52.098678
 20
42.603114
 30
0.0
  0
SPLINE
  5
114
100
AcDbEntity
  8
PCB
 62
1
100
AcDbSpline
 70
8
 71
3
 72
8
 73
4
 74
0
 40
0
 40
0
 40
0
 40
0
 40
1
 40
1
 40
1
 40
1
 10
52.098678
 20
42.603114
 30
0.0
 10
51.020890
 20
42.599214
 30
0.0
 10
50.737021
 20
43.439494
 30
0.0
 10
50.748201
 20
43.786020
 30
0.0
  0
LWPOLYLINE
  5
115
100
AcDbEntity
  8
PCB
 62
1
100
AcDbPolyline
 90
2
 70
1
 10
55.035554
 20
31.313123
 30
0.0
 10
55.035554
 20
39.664584
 30
0.0
  0
SPLINE
  5
116
100
AcDbEntity
  8
PCB
 62
1
100
AcDbSpline
 70
8
 71
3
 72
8
 73
4
 74
0
 40
0
 40
0
 40
0
 40
0
 40
1
 40
1
 40
1
 40
1
 10
50.748201
 20
69.734477
 30
0.0
 10
50.729191
 20
70.444641
 30
0.0
 10
51.193350
 20
70.920490
 30
0.0
 10
52.098678
 20
70.952113
 30
0.0
  0
SPLINE
  5
117
100
AcDbEntity
  8
PCB
 62
1
100
AcDbSpline
 70
8
 71
3
 72
8
 73
4
 74
0
 40
0
 40
0
 40
0
 40
0
 40
1
 40
1
 40
1
 40
1
 10
52.098678
 20
70.952113
 30
0.0
 10
53.720218
 20
71.005958
 30
0.0
 10
55.035554
 20
72.268587
 30
0.0
 10
55.035554
 20
73.891743
 30
0.0
  0
LWPOLYLINE
  5
118
100
AcDbEntity
  8
PCB
 62
1
100
AcDbPolyline
 90
2
 70
1
 10
50.748201
 20
43.786020
 30
0.0
 10
50.748201
 20
69.734477
 30
0.0
  0
SPLINE
  5
119
100
AcDbEntity
  8
PCB
 62
1
100
AcDbSpline
 70
8
 71
3
 72
8
 73
4
 74
0
 40
0
 40
0
 40
0
 40
0
 40
1
 40
1
 40
1
 40
1
 10
55.035554
 20
82.242653
 30
0.0
 10
55.035554
 20
83.865813
 30
0.0
 10
53.721111
 20
85.181734
 30
0.0
 10
52.098678
 20
85.181734
 30
0.0
  0
SPLINE
  5
11a
100
AcDbEntity
  8
PCB
 62
1
100
AcDbSpline
 70
8
 71
3
 72
8
 73
4
 74
0
 40
0
 40
0
 40
0
 40
0
 40
1
 40
1
 40
1
 40
1
 10
52.098678
 20
85.181734
 30
0.0
 10
51.042188
 20
85.171464
 30
0.0
 10
50.732391
 20
85.818907
 30
0.0
 10
50.748201
 20
86.352513
 30
0.0
  0
LWPOLYLINE
  5
11b
100
AcDbEntity
  8
PCB
 62
1
100
AcDbPolyline
 90
2
 70
1
 10
55.035554
 20
73.891743
 30
0.0
 10
55.035554
 20
82.242653
 30
0.0
  0
SPLINE
  5
11c
100
AcDbEntity
  8
PCB
 62
1
100
AcDbSpline
 70
8
 71
3
 72
8
 73
4
 74
0
 40
0
 40
0
 40
0
 40
0
 40
1
 40
1
 40
1
 40
1
 10
50.748201
 20
94.131263
 30
0.0
 10
50.748201
 20
95.754423
 30
0.0
 10
49.433207
 20
97.070344
 30
0.0
 10
47.810774
 20
97.070344
 30
0.0
  0
LWPOLYLINE
  5
11d
100
AcDbEntity
  8
PCB
 62
1
100
AcDbPolyline
 90
2
 70
1
 10
50.748201
 20
86.352513
 30
0.0
 10
50.748201
 20
94.131263
 30
0.0
  0
SPLINE
  5
11e
100
AcDbEntity
  8
PCB
 62
1
100
AcDbSpline
 70
8
 71
3
 72
8
 73
4
 74
0
 40
0
 40
0
 40
0
 40
0
 40
1
 40
1
 40
1
 40
1
 10
14.516818
 20
97.070344
 30
0.0
 10
12.894384
 20
97.070344
 30
0.0
 10
11.579392
 20
95.754423
 30
0.0
 10
11.579392
 20
94.131263
 30
0.0
  0
LWPOLYLINE
  5
11f
100
AcDbEntity
  8
PCB
 62
1
100
AcDbPolyline
 90
3
 70
1
 10
47.810774
 20
97.070344
 30
0.0
 10
31.163522
 20
97.070344
 30
0.0
 10
14.516818
 20
97.070344
 30
0.0
  0
SPLINE
  5
120
100
AcDbEntity
  8
PCB
 62
1
100
AcDbSpline
 70
8
 71
3
 72
8
 73
4
 74
0
 40
0
 40
0
 40
0
 40
0
 40
1
 40
1
 40
1
 40
1
 10
11.579392
 20
86.371806
 30
0.0
 10
11.584992
 20
85.842836
 30
0.0
 10
11.135403
 20
85.150111
 30
0.0
 10
10.234979
 20
85.181734
 30
0.0
  0
SPLINE
  5
121
100
AcDbEntity
  8
PCB
 62
1
100
AcDbSpline
 70
8
 71
3
 72
8
 73
4
 74
0
 40
0
 40
0
 40
0
 40
0
 40
1
 40
1
 40
1
 40
1
 10
10.234979
 20
85.181734
 30
0.0
 10
8.612542
 20
85.181734
 30
0.0
 10
7.297000
 20
83.865813
 30
0.0
 10
7.297000
 20
82.242653
 30
0.0
  0
LWPOLYLINE
  5
122
100
AcDbEntity
  8
PCB
 62
1
100
AcDbPolyline
 90
2
 70
1
 10
11.579392
 20
94.131263
 30
0.0
 10
11.579392
 20
86.371806
 30
0.0
  0
SPLINE
  5
123
100
AcDbEntity
  8
PCB
 62
1
100
AcDbSpline
 70
8
 71
3
 72
8
 73
4
 74
0
 40
0
 40
0
 40
0
 40
0
 40
1
 40
1
 40
1
 40
1
 10
7.297000
 20
73.891743
 30
0.0
 10
7.297000
 20
72.268587
 30
0.0
 10
8.612542
 20
70.952108
 30
0.0
 10
10.234979
 20
70.952113
 30
0.0
  0
SPLINE
  5
124
100
AcDbEntity
  8
PCB
 62
1
100
AcDbSpline
 70
8
 71
3
 72
8
 73
4
 74
0
 40
0
 40
0
 40
0
 40
0
 40
1
 40
1
 40
1
 40
1
 10
10.234979
 20
70.952113
 30
0.0
 10
11.112851
 20
70.903650
 30
0.0
 10
11.603108
 20
70.389154
 30
0.0
 10
11.579392
 20
69.758181
 30
0.0
  0
LWPOLYLINE
  5
125
100
AcDbEntity
  8
PCB
 62
1
100
AcDbPolyline
 90
2
 70
1
 10
7.297000
 20
82.242653
 30
0.0
 10
7.297000
 20
73.891743
 30
0.0
  0
SPLINE
  5
126
100
AcDbEntity
  8
PCB
 62
1
100
AcDbSpline
 70
8
 71
3
 72
8
 73
4
 74
0
 40
0
 40
0
 40
0
 40
0
 40
1
 40
1
 40
1
 40
1
 10
11.579392
 20
43.719323
 30
0.0
 10
11.582792
 20
43.231214
 30
0.0
 10
11.114372
 20
42.587304
 30
0.0
 10
10.234979
 20
42.603114
 30
0.0
  0
SPLINE
  5
127
100
AcDbEntity
  8
PCB
 62
1
100
AcDbSpline
 70
8
 71
3
 72
8
 73
4
 74
0
 40
0
 40
0
 40
0
 40
0
 40
1
 40
1
 40
1
 40
1
 10
10.234979
 20
42.603114
 30
0.0
 10
8.612542
 20
42.603114
 30
0.0
 10
7.297000
 20
41.287741
 30
0.0
 10
7.297000
 20
39.664584
 30
0.0
  0
LWPOLYLINE
  5
128
100
AcDbEntity
  8
PCB
 62
1
100
AcDbPolyline
 90
2
 70
1
 10
11.579392
 20
69.758181
 30
0.0
 10
11.579392
 20
43.719323
 30
0.0
  0
SPLINE
  5
129
100
AcDbEntity
  8
PCB
 62
1
100
AcDbSpline
 70
8
 71
3
 72
8
 73
4
 74
0
 40
0
 40
0
 40
0
 40
0
 40
1
 40
1
 40
1
 40
1
 10
7.297000
 20
108.693817
 30
0.0
 10
7.350840
 20
107.071557
 30
0.0
 10
8.612540
 20
105.755290
 30
0.0
 10
10.234979
 20
105.755290
 30
0.0
  0
SPLINE
  5
12a
100
AcDbEntity
  8
PCB
 62
1
100
AcDbSpline
 70
8
 71
3
 72
8
 73
4
 74
0
 40
0
 40
0
 40
0
 40
0
 40
1
 40
1
 40
1
 40
1
 10
10.234979
 20
105.755290
 30
0.0
 10
11.126589
 20
105.737860
 30
0.0
 10
11.587297
 20
104.885797
 30
0.0
 10
11.579392
 20
104.564665
 30
0.0
  0
LWPOLYLINE
  5
12b
100
AcDbEntity
  8
PCB
 62
1
100
AcDbPolyline
 90
3
 70
1
 10
7.297000
 20
39.664584
 30
0.0
 10
7.297000
 20
31.313123
 30
0.0
 10
7.297000
 20
31.313123
 30
0.0
  0
SPLINE
  5
12c
100
AcDbEntity
  8
PCB
 62
1
100
AcDbSpline
 70
8
 71
3
 72
8
 73
4
 74
0
 40
0
 40
0
 40
0
 40
0
 40
1
 40
1
 40
1
 40
1
 10
11.579392
 20
103.474914
 30
0.0
 10
11.579392
 20
101.851755
 30
0.0
 10
12.894384
 20
100.535832
 30
0.0
 10
14.516818
 20
100.535832
 30
0.0
  0
LWPOLYLINE
  5
12d
100
AcDbEntity
  8
PCB
 62
1
100
AcDbPolyline
 90
2
 70
1
 10
11.579392
 20
104.564665
 30
0.0
 10
11.579392
 20
103.474914
 30
0.0
  0
SPLINE
  5
12e
100
AcDbEntity
  8
PCB
 62
1
100
AcDbSpline
 70
8
 71
3
 72
8
 73
4
 74
0
 40
0
 40
0
 40
0
 40
0
 40
1
 40
1
 40
1
 40
1
 10
47.810774
 20
100.535832
 30
0.0
 10
49.432314
 20
100.589692
 30
0.0
 10
50.748201
 20
101.851755
 30
0.0
 10
50.748201
 20
103.474914
 30
0.0
  0
LWPOLYLINE
  5
12f
100
AcDbEntity
  8
PCB
 62
1
100
AcDbPolyline
 90
2
 70
1
 10
14.516818
 20
100.535832
 30
0.0
 10
47.810774
 20
100.535832
 30
0.0
  0
SPLINE
  5
130
100
AcDbEntity
  8
PCB
 62
1
100
AcDbSpline
 70
8
 71
3
 72
8
 73
4
 74
0
 40
0
 40
0
 40
0
 40
0
 40
1
 40
1
 40
1
 40
1
 10
50.748201
 20
104.572934
 30
0.0
 10
50.748970
 20
105.060727
 30
0.0
 10
51.059405
 20
105.707859
 30
0.0
 10
52.098678
 20
105.755290
 30
0.0
  0
SPLINE
  5
131
100
AcDbEntity
  8
PCB
 62
1
100
AcDbSpline
 70
8
 71
3
 72
8
 73
4
 74
0
 40
0
 40
0
 40
0
 40
0
 40
1
 40
1
 40
1
 40
1
 10
52.098678
 20
105.755290
 30
0.0
 10
53.721113
 20
105.755290
 30
0.0
 10
55.035554
 20
107.070668
 30
0.0
 10
55.035554
 20
108.693817
 30
0.0
  0
LWPOLYLINE
  5
132
100
AcDbEntity
  8
PCB
 62
1
100
AcDbPolyline
 90
2
 70
1
 10
50.748201
 20
103.474914
 30
0.0
 10
50.748201
 20
104.572934
 30
0.0
  0
SPLINE
  5
133
100
AcDbEntity
  8
PCB
 62
1
100
AcDbSpline
 70
8
 71
3
 72
8
 73
4
 74
0
 40
0
 40
0
 40
0
 40
0
 40
1
 40
1
 40
1
 40
1
 10
55.035554
 20
111.589352
 30
0.0
 10
55.035554
 20
113.212505
 30
0.0
 10
53.721113
 20
114.528432
 30
0.0
 10
52.098678
 20
114.528432
 30
0.0
  0
SPLINE
  5
134
100
AcDbEntity
  8
PCB
 62
1
100
AcDbSpline
 70
8
 71
3
 72
8
 73
4
 74
0
 40
0
 40
0
 40
0
 40
0
 40
1
 40
1
 40
1
 40
1
 10
52.098678
 20
114.528432
 30
0.0
 10
51.250874
 20
114.513552
 30
0.0
 10
50.759381
 20
115.280336
 30
0.0
 10
50.748201
 20
115.710237
 30
0.0
  0
LWPOLYLINE
  5
135
100
AcDbEntity
  8
PCB
 62
1
100
AcDbPolyline
 90
2
 70
1
 10
55.035554
 20
108.693817
 30
0.0
 10
55.035554
 20
111.589352
 30
0.0
  0
SPLINE
  5
136
100
AcDbEntity
  8
PCB
 62
1
100
AcDbSpline
 70
8
 71
3
 72
8
 73
4
 74
0
 40
0
 40
0
 40
0
 40
0
 40
1
 40
1
 40
1
 40
1
 10
50.748201
 20
117.356166
 30
0.0
 10
50.748201
 20
118.979321
 30
0.0
 10
49.433207
 20
120.294693
 30
0.0
 10
47.810774
 20
120.294693
 30
0.0
  0
LWPOLYLINE
  5
137
100
AcDbEntity
  8
PCB
 62
1
100
AcDbPolyline
 90
2
 70
1
 10
50.748201
 20
115.710237
 30
0.0
 10
50.748201
 20
117.356166
 30
0.0
  0
SPLINE
  5
138
100
AcDbEntity
  8
PCB
 62
1
100
AcDbSpline
 70
8
 71
3
 72
8
 73
4
 74
0
 40
0
 40
0
 40
0
 40
0
 40
1
 40
1
 40
1
 40
1
 10
14.516818
 20
120.294693
 30
0.0
 10
12.894384
 20
120.294693
 30
0.0
 10
11.579392
 20
118.979319
 30
0.0
 10
11.579392
 20
117.356166
 30
0.0
  0
LWPOLYLINE
  5
139
100
AcDbEntity
  8
PCB
 62
1
100
AcDbPolyline
 90
2
 70
1
 10
47.810774
 20
120.294693
 30
0.0
 10
14.516818
 20
120.294693
 30
0.0
  0
SPLINE
  5
13a
100
AcDbEntity
  8
PCB
 62
1
100
AcDbSpline
 70
8
 71
3
 72
8
 73
4
 74
0
 40
0
 40
0
 40
0
 40
0
 40
1
 40
1
 40
1
 40
1
 10
11.579392
 20
115.708033
 30
0.0
 10
11.601612
 20
114.932308
 30
0.0
 10
11.112312
 20
114.607485
 30
0.0
 10
10.234979
 20
114.528432
 30
0.0
  0
SPLINE
  5
13b
100
AcDbEntity
  8
PCB
 62
1
100
AcDbSpline
 70
8
 71
3
 72
8
 73
4
 74
0
 40
0
 40
0
 40
0
 40
0
 40
1
 40
1
 40
1
 40
1
 10
10.234979
 20
114.528432
 30
0.0
 10
8.612540
 20
114.528429
 30
0.0
 10
7.297000
 20
113.212505
 30
0.0
 10
7.297000
 20
111.589352
 30
0.0
  0
LWPOLYLINE
  5
13c
100
AcDbEntity
  8
PCB
 62
1
100
AcDbPolyline
 90
2
 70
1
 10
11.579392
 20
117.356166
 30
0.0
 10
11.579392
 20
115.708033
 30
0.0
  0
LWPOLYLINE
  5
13d
100
AcDbEntity
  8
PCB
 62
1
100
AcDbPolyline
 90
3
 70
1
 10
7.297000
 20
111.589352
 30
0.0
 10
7.297000
 20
108.693817
 30
0.0
 10
7.297000
 20
108.693817
 30
0.0
  0
SPLINE
  5
13e
100
AcDbEntity
  8
PCB
 62
1
100
AcDbSpline
 70
8
 71
3
 72
8
 73
4
 74
0
 40
0
 40
0
 40
0
 40
0
 40
1
 40
1
 40
1
 40
1
 10
13.362021
 20
87.779059
 30
0.0
 10
13.362021
 20
88.679350
 30
0.0
 10
14.139941
 20
89.409002
 30
0.0
 10
14.865738
 20
89.409002
 30
0.0
  0
LWPOLYLINE
  5
13f
100
AcDbEntity
  8
PCB
 62
1
100
AcDbPolyline
 90
2
 70
1
 10
13.362021
 20
86.533313
 30
0.0
 10
13.362021
 20
87.779059
 30
0.0
  0
SPLINE
  5
140
100
AcDbEntity
  8
PCB
 62
1
100
AcDbSpline
 70
8
 71
3
 72
8
 73
4
 74
0
 40
0
 40
0
 40
0
 40
0
 40
1
 40
1
 40
1
 40
1
 10
15.216862
 20
89.409002
 30
0.0
 10
15.942670
 20
89.409002
 30
0.0
 10
16.720579
 20
88.679350
 30
0.0
 10
16.720576
 20
87.779059
 30
0.0
  0
LWPOLYLINE
  5
141
100
AcDbEntity
  8
PCB
 62
1
100
AcDbPolyline
 90
2
 70
1
 10
14.865738
 20
89.409002
 30
0.0
 10
15.216862
 20
89.409002
 30
0.0
  0
SPLINE
  5
142
100
AcDbEntity
  8
PCB
 62
1
100
AcDbSpline
 70
8
 71
3
 72
8
 73
4
 74
0
 40
0
 40
0
 40
0
 40
0
 40
1
 40
1
 40
1
 40
1
 10
16.720576
 20
86.533313
 30
0.0
 10
16.720576
 20
85.633024
 30
0.0
 10
15.942272
 20
84.933248
 30
0.0
 10
15.216862
 20
84.903370
 30
0.0
  0
LWPOLYLINE
  5
143
100
AcDbEntity
  8
PCB
 62
1
100
AcDbPolyline
 90
2
 70
1
 10
16.720576
 20
87.779059
 30
0.0
 10
16.720576
 20
86.533313
 30
0.0
  0
SPLINE
  5
144
100
AcDbEntity
  8
PCB
 62
1
100
AcDbSpline
 70
8
 71
3
 72
8
 73
4
 74
0
 40
0
 40
0
 40
0
 40
0
 40
1
 40
1
 40
1
 40
1
 10
14.865738
 20
84.903370
 30
0.0
 10
14.139941
 20
84.903370
 30
0.0
 10
13.362013
 20
85.633024
 30
0.0
 10
13.362021
 20
86.533313
 30
0.0
  0
LWPOLYLINE
  5
145
100
AcDbEntity
  8
PCB
 62
1
100
AcDbPolyline
 90
2
 70
1
 10
15.216862
 20
84.903370
 30
0.0
 10
14.865738
 20
84.903370
 30
0.0
  0
LWPOLYLINE
  5
146
100
AcDbEntity
  8
PCB
 62
1
100
AcDbPolyline
 90
2
 70
1
 10
13.362021
 20
86.533313
 30
0.0
 10
13.362021
 20
86.533313
 30
0.0
  0
SPLINE
  5
147
100
AcDbEntity
  8
PCB
 62
1
100
AcDbSpline
 70
8
 71
3
 72
8
 73
4
 74
0
 40
0
 40
0
 40
0
 40
0
 40
1
 40
1
 40
1
 40
1
 10
18.590298
 20
27.892832
 30
0.0
 10
18.590298
 20
29.335198
 30
0.0
 10
19.368890
 20
30.504490
 30
0.0
 10
21.026119
 20
30.504490
 30
0.0
  0
LWPOLYLINE
  5
148
100
AcDbEntity
  8
PCB
 62
1
100
AcDbPolyline
 90
2
 70
1
 10
18.590298
 20
25.797112
 30
0.0
 10
18.590298
 20
27.892832
 30
0.0
  0
SPLINE
  5
149
100
AcDbEntity
  8
PCB
 62
1
100
AcDbSpline
 70
8
 71
3
 72
8
 73
4
 74
0
 40
0
 40
0
 40
0
 40
0
 40
1
 40
1
 40
1
 40
1
 10
27.295093
 20
30.504490
 30
0.0
 10
28.952322
 20
30.504490
 30
0.0
 10
29.731464
 20
29.335198
 30
0.0
 10
29.731464
 20
27.892832
 30
0.0
  0
LWPOLYLINE
  5
14a
100
AcDbEntity
  8
PCB
 62
1
100
AcDbPolyline
 90
2
 70
1
 10
21.026119
 20
30.504490
 30
0.0
 10
27.295093
 20
30.504490
 30
0.0
  0
SPLINE
  5
14b
100
AcDbEntity
  8
PCB
 62
1
100
AcDbSpline
 70
8
 71
3
 72
8
 73
4
 74
0
 40
0
 40
0
 40
0
 40
0
 40
1
 40
1
 40
1
 40
1
 10
29.731464
 20
25.797112
 30
0.0
 10
29.731464
 20
24.354747
 30
0.0
 10
28.952322
 20
23.185454
 30
0.0
 10
27.295093
 20
23.185454
 30
0.0
  0
LWPOLYLINE
  5
14c
100
AcDbEntity
  8
PCB
 62
1
100
AcDbPolyline
 90
2
 70
1
 10
29.731464
 20
27.892832
 30
0.0
 10
29.731464
 20
25.797112
 30
0.0
  0
SPLINE
  5
14d
100
AcDbEntity
  8
PCB
 62
1
100
AcDbSpline
 70
8
 71
3
 72
8
 73
4
 74
0
 40
0
 40
0
 40
0
 40
0
 40
1
 40
1
 40
1
 40
1
 10
21.026119
 20
23.185454
 30
0.0
 10
19.368890
 20
23.185454
 30
0.0
 10
18.645300
 20
24.355542
 30
0.0
 10
18.590298
 20
25.797112
 30
0.0
  0
LWPOLYLINE
  5
14e
100
AcDbEntity
  8
PCB
 62
1
100
AcDbPolyline
 90
2
 70
1
 10
27.295093
 20
23.185454
 30
0.0
 10
21.026119
 20
23.185454
 30
0.0
  0
LWPOLYLINE
  5
14f
100
AcDbEntity
  8
PCB
 62
1
100
AcDbPolyline
 90
2
 70
1
 10
18.590298
 20
25.797112
 30
0.0
 10
18.590298
 20
25.797112
 30
0.0
  0
SPLINE
  5
150
100
AcDbEntity
  8
PCB
 62
1
100
AcDbSpline
 70
8
 71
3
 72
8
 73
4
 74
0
 40
0
 40
0
 40
0
 40
0
 40
1
 40
1
 40
1
 40
1
 10
20.564203
 20
104.861221
 30
0.0
 10
20.564203
 20
105.587029
 30
0.0
 10
21.294402
 20
106.175318
 30
0.0
 10
22.194697
 20
106.175318
 30
0.0
  0
LWPOLYLINE
  5
151
100
AcDbEntity
  8
PCB
 62
1
100
AcDbPolyline
 90
2
 70
1
 10
20.564203
 20
104.695305
 30
0.0
 10
20.564203
 20
104.861221
 30
0.0
  0
SPLINE
  5
152
100
AcDbEntity
  8
PCB
 62
1
100
AcDbSpline
 70
8
 71
3
 72
8
 73
4
 74
0
 40
0
 40
0
 40
0
 40
0
 40
1
 40
1
 40
1
 40
1
 10
26.826559
 20
106.175318
 30
0.0
 10
27.726851
 20
106.175318
 30
0.0
 10
28.426626
 20
105.586631
 30
0.0
 10
28.456503
 20
104.861221
 30
0.0
  0
LWPOLYLINE
  5
153
100
AcDbEntity
  8
PCB
 62
1
100
AcDbPolyline
 90
2
 70
1
 10
22.194697
 20
106.175318
 30
0.0
 10
26.826559
 20
106.175318
 30
0.0
  0
SPLINE
  5
154
100
AcDbEntity
  8
PCB
 62
1
100
AcDbSpline
 70
8
 71
3
 72
8
 73
4
 74
0
 40
0
 40
0
 40
0
 40
0
 40
1
 40
1
 40
1
 40
1
 10
28.456503
 20
104.695305
 30
0.0
 10
28.456503
 20
103.969486
 30
0.0
 10
27.726851
 20
103.381205
 30
0.0
 10
26.826559
 20
103.381205
 30
0.0
  0
LWPOLYLINE
  5
155
100
AcDbEntity
  8
PCB
 62
1
100
AcDbPolyline
 90
2
 70
1
 10
28.456503
 20
104.861221
 30
0.0
 10
28.456503
 20
104.695305
 30
0.0
  0
SPLINE
  5
156
100
AcDbEntity
  8
PCB
 62
1
100
AcDbSpline
 70
8
 71
3
 72
8
 73
4
 74
0
 40
0
 40
0
 40
0
 40
0
 40
1
 40
1
 40
1
 40
1
 10
22.194697
 20
103.381205
 30
0.0
 10
21.294402
 20
103.381205
 30
0.0
 10
20.564203
 20
103.969486
 30
0.0
 10
20.564203
 20
104.695305
 30
0.0
  0
LWPOLYLINE
  5
157
100
AcDbEntity
  8
PCB
 62
1
100
AcDbPolyline
 90
2
 70
1
 10
26.826559
 20
103.381205
 30
0.0
 10
22.194697
 20
103.381205
 30
0.0
  0
LWPOLYLINE
  5
158
100
AcDbEntity
  8
PCB
 62
1
100
AcDbPolyline
 90
2
 70
1
 10
20.564203
 20
104.695305
 30
0.0
 10
20.564203
 20
104.695305
 30
0.0
  0
SPLINE
  5
159
100
AcDbEntity
  8
PCB
 62
1
100
AcDbSpline
 70
8
 71
3
 72
8
 73
4
 74
0
 40
0
 40
0
 40
0
 40
0
 40
1
 40
1
 40
1
 40
1
 10
27.182091
 20
15.856496
 30
0.0
 10
27.182091
 20
16.582305
 30
0.0
 10
27.911737
 20
17.170594
 30
0.0
 10
28.812038
 20
17.170594
 30
0.0
  0
LWPOLYLINE
  5
15a
100
AcDbEntity
  8
PCB
 62
1
100
AcDbPolyline
 90
2
 70
1
 10
27.182091
 20
15.690580
 30
0.0
 10
27.182091
 20
15.856496
 30
0.0
  0
SPLINE
  5
15b
100
AcDbEntity
  8
PCB
 62
1
100
AcDbSpline
 70
8
 71
3
 72
8
 73
4
 74
0
 40
0
 40
0
 40
0
 40
0
 40
1
 40
1
 40
1
 40
1
 10
33.443897
 20
17.170594
 30
0.0
 10
34.344197
 20
17.170594
 30
0.0
 10
35.074394
 20
16.582305
 30
0.0
 10
35.074394
 20
15.856496
 30
0.0
  0
LWPOLYLINE
  5
15c
100
AcDbEntity
  8
PCB
 62
1
100
AcDbPolyline
 90
2
 70
1
 10
28.812038
 20
17.170594
 30
0.0
 10
33.443897
 20
17.170594
 30
0.0
  0
SPLINE
  5
15d
100
AcDbEntity
  8
PCB
 62
1
100
AcDbSpline
 70
8
 71
3
 72
8
 73
4
 74
0
 40
0
 40
0
 40
0
 40
0
 40
1
 40
1
 40
1
 40
1
 10
35.074394
 20
15.690580
 30
0.0
 10
35.074394
 20
14.964773
 30
0.0
 10
34.344197
 20
14.376483
 30
0.0
 10
33.443897
 20
14.376483
 30
0.0
  0
LWPOLYLINE
  5
15e
100
AcDbEntity
  8
PCB
 62
1
100
AcDbPolyline
 90
2
 70
1
 10
35.074394
 20
15.856496
 30
0.0
 10
35.074394
 20
15.690580
 30
0.0
  0
SPLINE
  5
15f
100
AcDbEntity
  8
PCB
 62
1
100
AcDbSpline
 70
8
 71
3
 72
8
 73
4
 74
0
 40
0
 40
0
 40
0
 40
0
 40
1
 40
1
 40
1
 40
1
 10
28.812038
 20
14.376483
 30
0.0
 10
27.911737
 20
14.376483
 30
0.0
 10
27.211967
 20
14.965171
 30
0.0
 10
27.182091
 20
15.690580
 30
0.0
  0
LWPOLYLINE
  5
160
100
AcDbEntity
  8
PCB
 62
1
100
AcDbPolyline
 90
2
 70
1
 10
33.443897
 20
14.376483
 30
0.0
 10
28.812038
 20
14.376483
 30
0.0
  0
SPLINE
  5
161
100
AcDbEntity
  8
PCB
 62
7
100
AcDbSpline
 70
8
 71
3
 72
8
 73
4
 74
0
 40
0
 40
0
 40
0
 40
0
 40
1
 40
1
 40
1
 40
1
 10
34.757158
 20
114.008734
 30
0.0
 10
34.481016
 20
114.008734
 30
0.0
 10
34.257158
 20
114.232592
 30
0.0
 10
34.257158
 20
114.508734
 30
0.0
  0
SPLINE
  5
162
100
AcDbEntity
  8
PCB
 62
7
100
AcDbSpline
 70
8
 71
3
 72
8
 73
4
 74
0
 40
0
 40
0
 40
0
 40
0
 40
1
 40
1
 40
1
 40
1
 10
34.257158
 20
114.508734
 30
0.0
 10
34.257158
 20
114.784877
 30
0.0
 10
34.481016
 20
115.008734
 30
0.0
 10
34.757158
 20
115.008734
 30
0.0
  0
SPLINE
  5
163
100
AcDbEntity
  8
PCB
 62
7
100
AcDbSpline
 70
8
 71
3
 72
8
 73
4
 74
0
 40
0
 40
0
 40
0
 40
0
 40
1
 40
1
 40
1
 40
1
 10
34.757158
 20
115.008734
 30
0.0
 10
35.033301
 20
115.008734
 30
0.0
 10
35.257158
 20
114.784877
 30
0.0
 10
35.257158
 20
114.508734
 30
0.0
  0
SPLINE
  5
164
100
AcDbEntity
  8
PCB
 62
7
100
AcDbSpline
 70
8
 71
3
 72
8
 73
4
 74
0
 40
0
 40
0
 40
0
 40
0
 40
1
 40
1
 40
1
 40
1
 10
35.257158
 20
114.508734
 30
0.0
 10
35.257158
 20
114.232592
 30
0.0
 10
35.033301
 20
114.008734
 30
0.0
 10
34.757158
 20
114.008734
 30
0.0
  0
LWPOLYLINE
  5
165
100
AcDbEntity
  8
PCB
 62
1
100
AcDbPolyline
 90
2
 70
1
 10
27.182091
 20
15.690580
 30
0.0
 10
27.182091
 20
15.690580
 30
0.0
  0
LWPOLYLINE
  5
166
100
AcDbEntity
  8
PCB
 62
7
100
AcDbPolyline
 90
2
 70
1
 10
34.757158
 20
114.008734
 30
0.0
 10
34.757158
 20
114.008734
 30
0.0
  0
SPLINE
  5
167
100
AcDbEntity
  8
PCB
 62
7
100
AcDbSpline
 70
8
 71
3
 72
8
 73
4
 74
0
 40
0
 40
0
 40
0
 40
0
 40
1
 40
1
 40
1
 40
1
 10
34.757158
 20
114.958734
 30
0.0
 10
35.005686
 20
114.958734
 30
0.0
 10
35.207158
 20
114.757262
 30
0.0
 10
35.207158
 20
114.508734
 30
0.0
  0
LWPOLYLINE
  5
168
100
AcDbEntity
  8
PCB
 62
7
100
AcDbPolyline
 90
2
 70
1
 10
34.757158
 20
114.058734
 30
0.0
 10
34.757158
 20
114.958734
 30
0.0
  0
SPLINE
  5
169
100
AcDbEntity
  8
PCB
 62
7
100
AcDbSpline
 70
8
 71
3
 72
8
 73
4
 74
0
 40
0
 40
0
 40
0
 40
0
 40
1
 40
1
 40
1
 40
1
 10
34.307158
 20
114.508734
 30
0.0
 10
34.307158
 20
114.260206
 30
0.0
 10
34.508630
 20
114.058734
 30
0.0
 10
34.757158
 20
114.058734
 30
0.0
  0
LWPOLYLINE
  5
16a
100
AcDbEntity
  8
PCB
 62
7
100
AcDbPolyline
 90
3
 70
1
 10
35.207158
 20
114.508734
 30
0.0
 10
34.757158
 20
114.508734
 30
0.0
 10
34.307158
 20
114.508734
 30
0.0
  0
SPLINE
  5
16b
100
AcDbEntity
  8
PCB
 62
7
100
AcDbSpline
 70
8
 71
3
 72
8
 73
4
 74
0
 40
0
 40
0
 40
0
 40
0
 40
1
 40
1
 40
1
 40
1
 10
45.757158
 20
114.008734
 30
0.0
 10
45.481016
 20
114.008734
 30
0.0
 10
45.257158
 20
114.232592
 30
0.0
 10
45.257158
 20
114.508734
 30
0.0
  0
SPLINE
  5
16c
100
AcDbEntity
  8
PCB
 62
7
100
AcDbSpline
 70
8
 71
3
 72
8
 73
4
 74
0
 40
0
 40
0
 40
0
 40
0
 40
1
 40
1
 40
1
 40
1
 10
45.257158
 20
114.508734
 30
0.0
 10
45.257158
 20
114.784877
 30
0.0
 10
45.481016
 20
115.008734
 30
0.0
 10
45.757158
 20
115.008734
 30
0.0
  0
SPLINE
  5
16d
100
AcDbEntity
  8
PCB
 62
7
100
AcDbSpline
 70
8
 71
3
 72
8
 73
4
 74
0
 40
0
 40
0
 40
0
 40
0
 40
1
 40
1
 40
1
 40
1
 10
45.757158
 20
115.008734
 30
0.0
 10
46.033301
 20
115.008734
 30
0.0
 10
46.257158
 20
114.784877
 30
0.0
 10
46.257158
 20
114.508734
 30
0.0
  0
SPLINE
  5
16e
100
AcDbEntity
  8
PCB
 62
7
100
AcDbSpline
 70
8
 71
3
 72
8
 73
4
 74
0
 40
0
 40
0
 40
0
 40
0
 40
1
 40
1
 40
1
 40
1
 10
46.257158
 20
114.508734
 30
0.0
 10
46.257158
 20
114.232592
 30
0.0
 10
46.033301
 20
114.008734
 30
0.0
 10
45.757158
 20
114.008734
 30
0.0
  0
LWPOLYLINE
  5
16f
100
AcDbEntity
  8
PCB
 62
7
100
AcDbPolyline
 90
2
 70
1
 10
34.757158
 20
114.058734
 30
0.0
 10
34.757158
 20
114.058734
 30
0.0
  0
LWPOLYLINE
  5
170
100
AcDbEntity
  8
PCB
 62
7
100
AcDbPolyline
 90
2
 70
1
 10
45.757158
 20
114.008734
 30
0.0
 10
45.757158
 20
114.008734
 30
0.0
  0
SPLINE
  5
171
100
AcDbEntity
  8
PCB
 62
7
100
AcDbSpline
 70
8
 71
3
 72
8
 73
4
 74
0
 40
0
 40
0
 40
0
 40
0
 40
1
 40
1
 40
1
 40
1
 10
45.757158
 20
114.958734
 30
0.0
 10
46.005686
 20
114.958734
 30
0.0
 10
46.207158
 20
114.757262
 30
0.0
 10
46.207158
 20
114.508734
 30
0.0
  0
LWPOLYLINE
  5
172
100
AcDbEntity
  8
PCB
 62
7
100
AcDbPolyline
 90
2
 70
1
 10
45.757158
 20
114.058734
 30
0.0
 10
45.757158
 20
114.958734
 30
0.0
  0
SPLINE
  5
173
100
AcDbEntity
  8
PCB
 62
7
100
AcDbSpline
 70
8
 71
3
 72
8
 73
4
 74
0
 40
0
 40
0
 40
0
 40
0
 40
1
 40
1
 40
1
 40
1
 10
45.307158
 20
114.508734
 30
0.0
 10
45.307158
 20
114.260206
 30
0.0
 10
45.508630
 20
114.058734
 30
0.0
 10
45.757158
 20
114.058734
 30
0.0
  0
LWPOLYLINE
  5
174
100
AcDbEntity
  8
PCB
 62
7
100
AcDbPolyline
 90
3
 70
1
 10
46.207158
 20
114.508734
 30
0.0
 10
45.757158
 20
114.508734
 30
0.0
 10
45.307158
 20
114.508734
 30
0.0
  0
SPLINE
  5
175
100
AcDbEntity
  8
PCB
 62
7
100
AcDbSpline
 70
8
 71
3
 72
8
 73
4
 74
0
 40
0
 40
0
 40
0
 40
0
 40
1
 40
1
 40
1
 40
1
 10
39.231136
 20
112.578492
 30
0.0
 10
39.534893
 20
112.578492
 30
0.0
 10
39.781136
 20
112.332249
 30
0.0
 10
39.781136
 20
112.028492
 30
0.0
  0
SPLINE
  5
176
100
AcDbEntity
  8
PCB
 62
7
100
AcDbSpline
 70
8
 71
3
 72
8
 73
4
 74
0
 40
0
 40
0
 40
0
 40
0
 40
1
 40
1
 40
1
 40
1
 10
39.781136
 20
112.028492
 30
0.0
 10
39.781136
 20
111.724735
 30
0.0
 10
39.534893
 20
111.478492
 30
0.0
 10
39.231136
 20
111.478492
 30
0.0
  0
SPLINE
  5
177
100
AcDbEntity
  8
PCB
 62
7
100
AcDbSpline
 70
8
 71
3
 72
8
 73
4
 74
0
 40
0
 40
0
 40
0
 40
0
 40
1
 40
1
 40
1
 40
1
 10
39.231136
 20
111.478492
 30
0.0
 10
38.927380
 20
111.478492
 30
0.0
 10
38.681136
 20
111.724735
 30
0.0
 10
38.681136
 20
112.028492
 30
0.0
  0
SPLINE
  5
178
100
AcDbEntity
  8
PCB
 62
7
100
AcDbSpline
 70
8
 71
3
 72
8
 73
4
 74
0
 40
0
 40
0
 40
0
 40
0
 40
1
 40
1
 40
1
 40
1
 10
38.681136
 20
112.028492
 30
0.0
 10
38.681136
 20
112.332249
 30
0.0
 10
38.927380
 20
112.578492
 30
0.0
 10
39.231136
 20
112.578492
 30
0.0
  0
LWPOLYLINE
  5
179
100
AcDbEntity
  8
PCB
 62
7
100
AcDbPolyline
 90
2
 70
1
 10
45.757158
 20
114.058734
 30
0.0
 10
45.757158
 20
114.058734
 30
0.0
  0
LWPOLYLINE
  5
17a
100
AcDbEntity
  8
PCB
 62
7
100
AcDbPolyline
 90
2
 70
1
 10
39.231136
 20
112.578492
 30
0.0
 10
39.231136
 20
112.578492
 30
0.0
  0
SPLINE
  5
17b
100
AcDbEntity
  8
PCB
 62
7
100
AcDbSpline
 70
8
 71
3
 72
8
 73
4
 74
0
 40
0
 40
0
 40
0
 40
0
 40
1
 40
1
 40
1
 40
1
 10
39.231136
 20
111.533492
 30
0.0
 10
38.957755
 20
111.533492
 30
0.0
 10
38.736136
 20
111.755111
 30
0.0
 10
38.736136
 20
112.028492
 30
0.0
  0
LWPOLYLINE
  5
17c
100
AcDbEntity
  8
PCB
 62
7
100
AcDbPolyline
 90
2
 70
1
 10
39.231136
 20
112.523492
 30
0.0
 10
39.231136
 20
111.533492
 30
0.0
  0
SPLINE
  5
17d
100
AcDbEntity
  8
PCB
 62
7
100
AcDbSpline
 70
8
 71
3
 72
8
 73
4
 74
0
 40
0
 40
0
 40
0
 40
0
 40
1
 40
1
 40
1
 40
1
 10
39.726136
 20
112.028492
 30
0.0
 10
39.726136
 20
112.301873
 30
0.0
 10
39.504517
 20
112.523492
 30
0.0
 10
39.231136
 20
112.523492
 30
0.0
  0
LWPOLYLINE
  5
17e
100
AcDbEntity
  8
PCB
 62
7
100
AcDbPolyline
 90
3
 70
1
 10
38.736136
 20
112.028492
 30
0.0
 10
39.231136
 20
112.028492
 30
0.0
 10
39.726136
 20
112.028492
 30
0.0
  0
SPLINE
  5
17f
100
AcDbEntity
  8
PCB
 62
7
100
AcDbSpline
 70
8
 71
3
 72
8
 73
4
 74
0
 40
0
 40
0
 40
0
 40
0
 40
1
 40
1
 40
1
 40
1
 10
41.771136
 20
112.578492
 30
0.0
 10
42.074893
 20
112.578492
 30
0.0
 10
42.321136
 20
112.332249
 30
0.0
 10
42.321136
 20
112.028492
 30
0.0
  0
SPLINE
  5
180
100
AcDbEntity
  8
PCB
 62
7
100
AcDbSpline
 70
8
 71
3
 72
8
 73
4
 74
0
 40
0
 40
0
 40
0
 40
0
 40
1
 40
1
 40
1
 40
1
 10
42.321136
 20
112.028492
 30
0.0
 10
42.321136
 20
111.724735
 30
0.0
 10
42.074893
 20
111.478492
 30
0.0
 10
41.771136
 20
111.478492
 30
0.0
  0
SPLINE
  5
181
100
AcDbEntity
  8
PCB
 62
7
100
AcDbSpline
 70
8
 71
3
 72
8
 73
4
 74
0
 40
0
 40
0
 40
0
 40
0
 40
1
 40
1
 40
1
 40
1
 10
41.771136
 20
111.478492
 30
0.0
 10
41.467380
 20
111.478492
 30
0.0
 10
41.221136
 20
111.724735
 30
0.0
 10
41.221136
 20
112.028492
 30
0.0
  0
SPLINE
  5
182
100
AcDbEntity
  8
PCB
 62
7
100
AcDbSpline
 70
8
 71
3
 72
8
 73
4
 74
0
 40
0
 40
0
 40
0
 40
0
 40
1
 40
1
 40
1
 40
1
 10
41.221136
 20
112.028492
 30
0.0
 10
41.221136
 20
112.332249
 30
0.0
 10
41.467380
 20
112.578492
 30
0.0
 10
41.771136
 20
112.578492
 30
0.0
  0
LWPOLYLINE
  5
183
100
AcDbEntity
  8
PCB
 62
7
100
AcDbPolyline
 90
2
 70
1
 10
39.231136
 20
112.523492
 30
0.0
 10
39.231136
 20
112.523492
 30
0.0
  0
LWPOLYLINE
  5
184
100
AcDbEntity
  8
PCB
 62
7
100
AcDbPolyline
 90
2
 70
1
 10
41.771136
 20
112.578492
 30
0.0
 10
41.771136
 20
112.578492
 30
0.0
  0
SPLINE
  5
185
100
AcDbEntity
  8
PCB
 62
7
100
AcDbSpline
 70
8
 71
3
 72
8
 73
4
 74
0
 40
0
 40
0
 40
0
 40
0
 40
1
 40
1
 40
1
 40
1
 10
41.771136
 20
111.533492
 30
0.0
 10
41.497755
 20
111.533492
 30
0.0
 10
41.276136
 20
111.755111
 30
0.0
 10
41.276136
 20
112.028492
 30
0.0
  0
LWPOLYLINE
  5
186
100
AcDbEntity
  8
PCB
 62
7
100
AcDbPolyline
 90
2
 70
1
 10
41.771136
 20
112.523492
 30
0.0
 10
41.771136
 20
111.533492
 30
0.0
  0
SPLINE
  5
187
100
AcDbEntity
  8
PCB
 62
7
100
AcDbSpline
 70
8
 71
3
 72
8
 73
4
 74
0
 40
0
 40
0
 40
0
 40
0
 40
1
 40
1
 40
1
 40
1
 10
42.266136
 20
112.028492
 30
0.0
 10
42.266136
 20
112.301873
 30
0.0
 10
42.044517
 20
112.523492
 30
0.0
 10
41.771136
 20
112.523492
 30
0.0
  0
LWPOLYLINE
  5
188
100
AcDbEntity
  8
PCB
 62
7
100
AcDbPolyline
 90
3
 70
1
 10
41.276136
 20
112.028492
 30
0.0
 10
41.771136
 20
112.028492
 30
0.0
 10
42.266136
 20
112.028492
 30
0.0
  0
SPLINE
  5
189
100
AcDbEntity
  8
PCB
 62
7
100
AcDbSpline
 70
8
 71
3
 72
8
 73
4
 74
0
 40
0
 40
0
 40
0
 40
0
 40
1
 40
1
 40
1
 40
1
 10
20.969129
 20
112.646935
 30
0.0
 10
21.272886
 20
112.646935
 30
0.0
 10
21.519129
 20
112.400692
 30
0.0
 10
21.519129
 20
112.096935
 30
0.0
  0
SPLINE
  5
18a
100
AcDbEntity
  8
PCB
 62
7
100
AcDbSpline
 70
8
 71
3
 72
8
 73
4
 74
0
 40
0
 40
0
 40
0
 40
0
 40
1
 40
1
 40
1
 40
1
 10
21.519129
 20
112.096935
 30
0.0
 10
21.519129
 20
111.793179
 30
0.0
 10
21.272886
 20
111.546935
 30
0.0
 10
20.969129
 20
111.546935
 30
0.0
  0
SPLINE
  5
18b
100
AcDbEntity
  8
PCB
 62
7
100
AcDbSpline
 70
8
 71
3
 72
8
 73
4
 74
0
 40
0
 40
0
 40
0
 40
0
 40
1
 40
1
 40
1
 40
1
 10
20.969129
 20
111.546935
 30
0.0
 10
20.665373
 20
111.546935
 30
0.0
 10
20.419129
 20
111.793179
 30
0.0
 10
20.419129
 20
112.096935
 30
0.0
  0
SPLINE
  5
18c
100
AcDbEntity
  8
PCB
 62
7
100
AcDbSpline
 70
8
 71
3
 72
8
 73
4
 74
0
 40
0
 40
0
 40
0
 40
0
 40
1
 40
1
 40
1
 40
1
 10
20.419129
 20
112.096935
 30
0.0
 10
20.419129
 20
112.400692
 30
0.0
 10
20.665373
 20
112.646935
 30
0.0
 10
20.969129
 20
112.646935
 30
0.0
  0
LWPOLYLINE
  5
18d
100
AcDbEntity
  8
PCB
 62
7
100
AcDbPolyline
 90
2
 70
1
 10
41.771136
 20
112.523492
 30
0.0
 10
41.771136
 20
112.523492
 30
0.0
  0
LWPOLYLINE
  5
18e
100
AcDbEntity
  8
PCB
 62
7
100
AcDbPolyline
 90
2
 70
1
 10
20.969129
 20
112.646935
 30
0.0
 10
20.969129
 20
112.646935
 30
0.0
  0
SPLINE
  5
18f
100
AcDbEntity
  8
PCB
 62
7
100
AcDbSpline
 70
8
 71
3
 72
8
 73
4
 74
0
 40
0
 40
0
 40
0
 40
0
 40
1
 40
1
 40
1
 40
1
 10
20.969129
 20
111.601935
 30
0.0
 10
20.695748
 20
111.601935
 30
0.0
 10
20.474129
 20
111.823554
 30
0.0
 10
20.474129
 20
112.096935
 30
0.0
  0
LWPOLYLINE
  5
190
100
AcDbEntity
  8
PCB
 62
7
100
AcDbPolyline
 90
2
 70
1
 10
20.969129
 20
112.591935
 30
0.0
 10
20.969129
 20
111.601935
 30
0.0
  0
SPLINE
  5
191
100
AcDbEntity
  8
PCB
 62
7
100
AcDbSpline
 70
8
 71
3
 72
8
 73
4
 74
0
 40
0
 40
0
 40
0
 40
0
 40
1
 40
1
 40
1
 40
1
 10
21.464129
 20
112.096935
 30
0.0
 10
21.464129
 20
112.370316
 30
0.0
 10
21.242510
 20
112.591935
 30
0.0
 10
20.969129
 20
112.591935
 30
0.0
  0
LWPOLYLINE
  5
192
100
AcDbEntity
  8
PCB
 62
7
100
AcDbPolyline
 90
3
 70
1
 10
20.474129
 20
112.096935
 30
0.0
 10
20.969129
 20
112.096935
 30
0.0
 10
21.464129
 20
112.096935
 30
0.0
  0
SPLINE
  5
193
100
AcDbEntity
  8
PCB
 62
7
100
AcDbSpline
 70
8
 71
3
 72
8
 73
4
 74
0
 40
0
 40
0
 40
0
 40
0
 40
1
 40
1
 40
1
 40
1
 10
23.509129
 20
112.646935
 30
0.0
 10
23.812886
 20
112.646935
 30
0.0
 10
24.059129
 20
112.400692
 30
0.0
 10
24.059129
 20
112.096935
 30
0.0
  0
SPLINE
  5
194
100
AcDbEntity
  8
PCB
 62
7
100
AcDbSpline
 70
8
 71
3
 72
8
 73
4
 74
0
 40
0
 40
0
 40
0
 40
0
 40
1
 40
1
 40
1
 40
1
 10
24.059129
 20
112.096935
 30
0.0
 10
24.059129
 20
111.793179
 30
0.0
 10
23.812886
 20
111.546935
 30
0.0
 10
23.509129
 20
111.546935
 30
0.0
  0
SPLINE
  5
195
100
AcDbEntity
  8
PCB
 62
7
100
AcDbSpline
 70
8
 71
3
 72
8
 73
4
 74
0
 40
0
 40
0
 40
0
 40
0
 40
1
 40
1
 40
1
 40
1
 10
23.509129
 20
111.546935
 30
0.0
 10
23.205373
 20
111.546935
 30
0.0
 10
22.959129
 20
111.793179
 30
0.0
 10
22.959129
 20
112.096935
 30
0.0
  0
SPLINE
  5
196
100
AcDbEntity
  8
PCB
 62
7
100
AcDbSpline
 70
8
 71
3
 72
8
 73
4
 74
0
 40
0
 40
0
 40
0
 40
0
 40
1
 40
1
 40
1
 40
1
 10
22.959129
 20
112.096935
 30
0.0
 10
22.959129
 20
112.400692
 30
0.0
 10
23.205373
 20
112.646935
 30
0.0
 10
23.509129
 20
112.646935
 30
0.0
  0
LWPOLYLINE
  5
197
100
AcDbEntity
  8
PCB
 62
7
100
AcDbPolyline
 90
2
 70
1
 10
20.969129
 20
112.591935
 30
0.0
 10
20.969129
 20
112.591935
 30
0.0
  0
LWPOLYLINE
  5
198
100
AcDbEntity
  8
PCB
 62
7
100
AcDbPolyline
 90
2
 70
1
 10
23.509129
 20
112.646935
 30
0.0
 10
23.509129
 20
112.646935
 30
0.0
  0
SPLINE
  5
199
100
AcDbEntity
  8
PCB
 62
7
100
AcDbSpline
 70
8
 71
3
 72
8
 73
4
 74
0
 40
0
 40
0
 40
0
 40
0
 40
1
 40
1
 40
1
 40
1
 10
23.509129
 20
111.601935
 30
0.0
 10
23.235748
 20
111.601935
 30
0.0
 10
23.014129
 20
111.823554
 30
0.0
 10
23.014129
 20
112.096935
 30
0.0
  0
LWPOLYLINE
  5
19a
100
AcDbEntity
  8
PCB
 62
7
100
AcDbPolyline
 90
2
 70
1
 10
23.509129
 20
112.591935
 30
0.0
 10
23.509129
 20
111.601935
 30
0.0
  0
SPLINE
  5
19b
100
AcDbEntity
  8
PCB
 62
7
100
AcDbSpline
 70
8
 71
3
 72
8
 73
4
 74
0
 40
0
 40
0
 40
0
 40
0
 40
1
 40
1
 40
1
 40
1
 10
24.004129
 20
112.096935
 30
0.0
 10
24.004129
 20
112.370316
 30
0.0
 10
23.782510
 20
112.591935
 30
0.0
 10
23.509129
 20
112.591935
 30
0.0
  0
LWPOLYLINE
  5
19c
100
AcDbEntity
  8
PCB
 62
7
100
AcDbPolyline
 90
3
 70
1
 10
23.014129
 20
112.096935
 30
0.0
 10
23.509129
 20
112.096935
 30
0.0
 10
24.004129
 20
112.096935
 30
0.0
  0
SPLINE
  5
19d
100
AcDbEntity
  8
Legs
 62
7
100
AcDbSpline
 70
8
 71
3
 72
8
 73
4
 74
0
 40
0
 40
0
 40
0
 40
0
 40
1
 40
1
 40
1
 40
1
 10
16.175412
 20
48.287810
 30
0.0
 10
11.980919
 20
48.402394
 30
0.0
 10
7.886133
 20
45.967941
 30
0.0
 10
4.791869
 20
41.520006
 30
0.0
  0
SPLINE
  5
19e
100
AcDbEntity
  8
Legs
 62
7
100
AcDbSpline
 70
8
 71
3
 72
8
 73
4
 74
0
 40
0
 40
0
 40
0
 40
0
 40
1
 40
1
 40
1
 40
1
 10
4.791869
 20
41.520006
 30
0.0
 10
1.697604
 20
37.072072
 30
0.0
 10
-0.142671
 20
30.975012
 30
0.0
 10
-0.324115
 20
24.570120
 30
0.0
  0
SPLINE
  5
19f
100
AcDbEntity
  8
Legs
 62
7
100
AcDbSpline
 70
8
 71
3
 72
8
 73
4
 74
0
 40
0
 40
0
 40
0
 40
0
 40
1
 40
1
 40
1
 40
1
 10
-0.324115
 20
24.570120
 30
0.0
 10
-0.424885
 20
20.890701
 30
0.0
 10
0.026283
 20
17.246100
 30
0.0
 10
0.994944
 20
13.914574
 30
0.0
  0
SPLINE
  5
1a0
100
AcDbEntity
  8
Legs
 62
7
100
AcDbSpline
 70
8
 71
3
 72
8
 73
4
 74
0
 40
0
 40
0
 40
0
 40
0
 40
1
 40
1
 40
1
 40
1
 10
0.994944
 20
13.914574
 30
0.0
 10
0.102426
 20
13.364213
 30
0.0
 10
0.623850
 20
9.237813
 30
0.0
 10
1.148181
 20
8.065067
 30
0.0
  0
LWPOLYLINE
  5
1a1
100
AcDbEntity
  8
PCB
 62
7
100
AcDbPolyline
 90
2
 70
1
 10
23.509129
 20
112.591935
 30
0.0
 10
23.509129
 20
112.591935
 30
0.0
  0
SPLINE
  5
1a2
100
AcDbEntity
  8
Legs
 62
7
100
AcDbSpline
 70
8
 71
3
 72
8
 73
4
 74
0
 40
0
 40
0
 40
0
 40
0
 40
1
 40
1
 40
1
 40
1
 10
-6.400160
 20
4.986531
 30
0.0
 10
-6.400160
 20
4.986531
 30
0.0
 10
-8.560938
 20
3.048793
 30
0.0
 10
-7.734653
 20
1.457652
 30
0.0
  0
SPLINE
  5
1a3
100
AcDbEntity
  8
Legs
 62
7
100
AcDbSpline
 70
8
 71
3
 72
8
 73
4
 74
0
 40
0
 40
0
 40
0
 40
0
 40
1
 40
1
 40
1
 40
1
 10
-7.734653
 20
1.457652
 30
0.0
 10
-6.908368
 20
-0.133545
 30
0.0
 10
-4.001823
 20
-2.636771
 30
0.0
 10
-4.001823
 20
-2.636771
 30
0.0
  0
SPLINE
  5
1a4
100
AcDbEntity
  8
Legs
 62
7
100
AcDbSpline
 70
8
 71
3
 72
8
 73
4
 74
0
 40
0
 40
0
 40
0
 40
0
 40
1
 40
1
 40
1
 40
1
 10
-4.001823
 20
-2.636771
 30
0.0
 10
-4.001823
 20
-2.636771
 30
0.0
 10
-1.730425
 20
-4.481489
 30
0.0
 10
0.450343
 20
-4.398459
 30
0.0
  0
SPLINE
  5
1a5
100
AcDbEntity
  8
Legs
 62
7
100
AcDbSpline
 70
8
 71
3
 72
8
 73
4
 74
0
 40
0
 40
0
 40
0
 40
0
 40
1
 40
1
 40
1
 40
1
 10
0.450343
 20
-4.398459
 30
0.0
 10
2.631112
 20
-4.315429
 30
0.0
 10
22.318494
 20
-1.430864
 30
0.0
 10
23.449249
 20
0.035534
 30
0.0
  0
SPLINE
  5
1a6
100
AcDbEntity
  8
Legs
 62
7
100
AcDbSpline
 70
8
 71
3
 72
8
 73
4
 74
0
 40
0
 40
0
 40
0
 40
0
 40
1
 40
1
 40
1
 40
1
 10
23.449249
 20
0.035534
 30
0.0
 10
24.161668
 20
0.959417
 30
0.0
 10
24.965527
 20
3.309312
 30
0.0
 10
25.446853
 20
4.858656
 30
0.0
  0
SPLINE
  5
1a7
100
AcDbEntity
  8
Legs
 62
7
100
AcDbSpline
 70
8
 71
3
 72
8
 73
4
 74
0
 40
0
 40
0
 40
0
 40
0
 40
1
 40
1
 40
1
 40
1
 10
25.446853
 20
4.858656
 30
0.0
 10
26.757017
 20
5.845079
 30
0.0
 10
29.010539
 20
9.038931
 30
0.0
 10
28.132925
 20
10.099071
 30
0.0
  0
SPLINE
  5
1a8
100
AcDbEntity
  8
Legs
 62
7
100
AcDbSpline
 70
8
 71
3
 72
8
 73
4
 74
0
 40
0
 40
0
 40
0
 40
0
 40
1
 40
1
 40
1
 40
1
 10
28.132925
 20
10.099071
 30
0.0
 10
29.683442
 20
13.305145
 30
0.0
 10
30.706234
 20
17.021257
 30
0.0
 10
31.112243
 20
20.923828
 30
0.0
  0
SPLINE
  5
1a9
100
AcDbEntity
  8
Legs
 62
7
100
AcDbSpline
 70
8
 71
3
 72
8
 73
4
 74
0
 40
0
 40
0
 40
0
 40
0
 40
1
 40
1
 40
1
 40
1
 10
31.112243
 20
20.923828
 30
0.0
 10
31.700591
 20
16.230099
 30
0.0
 10
33.160504
 20
11.765263
 30
0.0
 10
35.310851
 20
8.083270
 30
0.0
  0
SPLINE
  5
1aa
100
AcDbEntity
  8
Legs
 62
7
100
AcDbSpline
 70
8
 71
3
 72
8
 73
4
 74
0
 40
0
 40
0
 40
0
 40
0
 40
1
 40
1
 40
1
 40
1
 10
35.310851
 20
8.083270
 30
0.0
 10
34.542990
 20
6.953450
 30
0.0
 10
37.019168
 20
3.960286
 30
0.0
 10
38.384980
 20
3.087062
 30
0.0
  0
SPLINE
  5
1ab
100
AcDbEntity
  8
Legs
 62
7
100
AcDbSpline
 70
8
 71
3
 72
8
 73
4
 74
0
 40
0
 40
0
 40
0
 40
0
 40
1
 40
1
 40
1
 40
1
 10
38.384980
 20
3.087062
 30
0.0
 10
38.987933
 20
1.583636
 30
0.0
 10
39.975031
 20
-0.690510
 30
0.0
 10
40.750795
 20
-1.551429
 30
0.0
  0
SPLINE
  5
1ac
100
AcDbEntity
  8
Legs
 62
7
100
AcDbSpline
 70
8
 71
3
 72
8
 73
4
 74
0
 40
0
 40
0
 40
0
 40
0
 40
1
 40
1
 40
1
 40
1
 10
40.750795
 20
-1.551429
 30
0.0
 10
41.982037
 20
-2.917836
 30
0.0
 10
61.488424
 20
-4.143838
 30
0.0
 10
63.628984
 20
-4.044016
 30
0.0
  0
SPLINE
  5
1ad
100
AcDbEntity
  8
Legs
 62
7
100
AcDbSpline
 70
8
 71
3
 72
8
 73
4
 74
0
 40
0
 40
0
 40
0
 40
0
 40
1
 40
1
 40
1
 40
1
 10
63.628984
 20
-4.044016
 30
0.0
 10
65.769544
 20
-3.944194
 30
0.0
 10
67.834205
 20
-1.916314
 30
0.0
 10
67.834205
 20
-1.916314
 30
0.0
  0
SPLINE
  5
1ae
100
AcDbEntity
  8
Legs
 62
7
100
AcDbSpline
 70
8
 71
3
 72
8
 73
4
 74
0
 40
0
 40
0
 40
0
 40
0
 40
1
 40
1
 40
1
 40
1
 10
67.834205
 20
-1.916314
 30
0.0
 10
67.834205
 20
-1.916314
 30
0.0
 10
70.464361
 20
0.821213
 30
0.0
 10
71.137089
 20
2.475769
 30
0.0
  0
SPLINE
  5
1af
100
AcDbEntity
  8
Legs
 62
7
100
AcDbSpline
 70
8
 71
3
 72
8
 73
4
 74
0
 40
0
 40
0
 40
0
 40
0
 40
1
 40
1
 40
1
 40
1
 10
71.137089
 20
2.475769
 30
0.0
 10
71.809819
 20
4.130297
 30
0.0
 10
69.530846
 20
5.879510
 30
0.0
 10
69.530846
 20
5.879510
 30
0.0
  0
LWPOLYLINE
  5
1b0
100
AcDbEntity
  8
Legs
 62
7
100
AcDbPolyline
 90
2
 70
1
 10
1.148181
 20
8.065067
 30
0.0
 10
-6.400160
 20
4.986531
 30
0.0
  0
SPLINE
  5
1b1
100
AcDbEntity
  8
Legs
 62
7
100
AcDbSpline
 70
8
 71
3
 72
8
 73
4
 74
0
 40
0
 40
0
 40
0
 40
0
 40
1
 40
1
 40
1
 40
1
 10
61.883838
 20
8.315342
 30
0.0
 10
62.296858
 20
9.527740
 30
0.0
 10
62.455211
 20
13.683406
 30
0.0
 10
61.534918
 20
14.156552
 30
0.0
  0
SPLINE
  5
1b2
100
AcDbEntity
  8
Legs
 62
7
100
AcDbSpline
 70
8
 71
3
 72
8
 73
4
 74
0
 40
0
 40
0
 40
0
 40
0
 40
1
 40
1
 40
1
 40
1
 10
61.534918
 20
14.156552
 30
0.0
 10
62.198536
 20
17.557058
 30
0.0
 10
62.329191
 20
21.226170
 30
0.0
 10
61.916908
 20
24.883759
 30
0.0
  0
SPLINE
  5
1b3
100
AcDbEntity
  8
Legs
 62
7
100
AcDbSpline
 70
8
 71
3
 72
8
 73
4
 74
0
 40
0
 40
0
 40
0
 40
0
 40
1
 40
1
 40
1
 40
1
 10
61.916908
 20
24.883759
 30
0.0
 10
60.485222
 20
37.481980
 30
0.0
 10
53.034415
 20
47.224974
 30
0.0
 10
44.852387
 20
47.198057
 30
0.0
  0
SPLINE
  5
1b4
100
AcDbEntity
  8
Legs
 62
7
100
AcDbSpline
 70
8
 71
3
 72
8
 73
4
 74
0
 40
0
 40
0
 40
0
 40
0
 40
1
 40
1
 40
1
 40
1
 10
44.852387
 20
47.198057
 30
0.0
 10
44.484305
 20
47.196855
 30
0.0
 10
44.117701
 20
47.175528
 30
0.0
 10
43.753264
 20
47.134117
 30
0.0
  0
SPLINE
  5
1b5
100
AcDbEntity
  8
Legs
 62
7
100
AcDbSpline
 70
8
 71
3
 72
8
 73
4
 74
0
 40
0
 40
0
 40
0
 40
0
 40
1
 40
1
 40
1
 40
1
 10
43.753264
 20
47.134117
 30
0.0
 10
37.175645
 20
46.373220
 30
0.0
 10
32.063370
 20
39.211342
 30
0.0
 10
31.019090
 20
29.294585
 30
0.0
  0
SPLINE
  5
1b6
100
AcDbEntity
  8
Legs
 62
7
100
AcDbSpline
 70
8
 71
3
 72
8
 73
4
 74
0
 40
0
 40
0
 40
0
 40
0
 40
1
 40
1
 40
1
 40
1
 10
31.019090
 20
29.294585
 30
0.0
 10
29.636817
 20
40.217777
 30
0.0
 10
23.496122
 20
48.075102
 30
0.0
 10
16.175412
 20
48.287810
 30
0.0
  0
LWPOLYLINE
  5
1b7
100
AcDbEntity
  8
Legs
 62
7
100
AcDbPolyline
 90
2
 70
1
 10
69.530846
 20
5.879510
 30
0.0
 10
61.883838
 20
8.315342
 30
0.0
  0
LWPOLYLINE
  5
1b8
100
AcDbEntity
  8
Legs
 62
7
100
AcDbPolyline
 90
2
 70
1
 10
16.175412
 20
48.287810
 30
0.0
 10
16.175412
 20
48.287810
 30
0.0
  0
SPLINE
  5
1b9
100
AcDbEntity
  8
Body
 62
7
100
AcDbSpline
 70
8
 71
3
 72
8
 73
4
 74
0
 40
0
 40
0
 40
0
 40
0
 40
1
 40
1
 40
1
 40
1
 10
15.612070
 20
86.602231
 30
0.0
 10
6.617054
 20
84.838215
 30
0.0
 10
-3.461024
 20
80.363836
 30
0.0
 10
-5.886428
 20
68.915937
 30
0.0
  0
SPLINE
  5
1ba
100
AcDbEntity
  8
Body
 62
7
100
AcDbSpline
 70
8
 71
3
 72
8
 73
4
 74
0
 40
0
 40
0
 40
0
 40
0
 40
1
 40
1
 40
1
 40
1
 10
-5.886428
 20
68.915937
 30
0.0
 10
-6.023461
 20
66.904709
 30
0.0
 10
-5.773918
 20
64.109301
 30
0.0
 10
-5.342930
 20
61.114590
 30
0.0
  0
SPLINE
  5
1bb
100
AcDbEntity
  8
Body
 62
7
100
AcDbSpline
 70
8
 71
3
 72
8
 73
4
 74
0
 40
0
 40
0
 40
0
 40
0
 40
1
 40
1
 40
1
 40
1
 10
-5.342930
 20
61.114590
 30
0.0
 10
-6.303474
 20
60.485673
 30
0.0
 10
-6.681056
 20
59.683336
 30
0.0
 10
-6.318030
 20
59.042571
 30
0.0
  0
SPLINE
  5
1bc
100
AcDbEntity
  8
Body
 62
7
100
AcDbSpline
 70
8
 71
3
 72
8
 73
4
 74
0
 40
0
 40
0
 40
0
 40
0
 40
1
 40
1
 40
1
 40
1
 10
-6.318030
 20
59.042571
 30
0.0
 10
-6.304082
 20
59.019483
 30
0.0
 10
-6.289196
 20
58.996695
 30
0.0
 10
-6.273381
 20
58.974219
 30
0.0
  0
SPLINE
  5
1bd
100
AcDbEntity
  8
Body
 62
7
100
AcDbSpline
 70
8
 71
3
 72
8
 73
4
 74
0
 40
0
 40
0
 40
0
 40
0
 40
1
 40
1
 40
1
 40
1
 10
-6.273381
 20
58.974219
 30
0.0
 10
-6.507964
 20
58.810781
 30
0.0
 10
-6.736527
 20
58.637794
 30
0.0
 10
-6.957990
 20
58.456076
 30
0.0
  0
SPLINE
  5
1be
100
AcDbEntity
  8
Body
 62
7
100
AcDbSpline
 70
8
 71
3
 72
8
 73
4
 74
0
 40
0
 40
0
 40
0
 40
0
 40
1
 40
1
 40
1
 40
1
 10
-6.957990
 20
58.456076
 30
0.0
 10
-10.217155
 20
55.764344
 30
0.0
 10
-11.297326
 20
51.762256
 30
0.0
 10
-9.370660
 20
49.517020
 30
0.0
  0
SPLINE
  5
1bf
100
AcDbEntity
  8
Body
 62
7
100
AcDbSpline
 70
8
 71
3
 72
8
 73
4
 74
0
 40
0
 40
0
 40
0
 40
0
 40
1
 40
1
 40
1
 40
1
 10
-9.370660
 20
49.517020
 30
0.0
 10
-8.035785
 20
47.965346
 30
0.0
 10
-5.533433
 20
47.611106
 30
0.0
 10
-2.922543
 20
48.604206
 30
0.0
  0
SPLINE
  5
1c0
100
AcDbEntity
  8
Body
 62
7
100
AcDbSpline
 70
8
 71
3
 72
8
 73
4
 74
0
 40
0
 40
0
 40
0
 40
0
 40
1
 40
1
 40
1
 40
1
 10
-2.922543
 20
48.604206
 30
0.0
 10
-2.569165
 20
47.068218
 30
0.0
 10
-2.250796
 20
45.740252
 30
0.0
 10
-2.045560
 20
44.914371
 30
0.0
  0
SPLINE
  5
1c1
100
AcDbEntity
  8
Body
 62
7
100
AcDbSpline
 70
8
 71
3
 72
8
 73
4
 74
0
 40
0
 40
0
 40
0
 40
0
 40
1
 40
1
 40
1
 40
1
 10
-2.045560
 20
44.914371
 30
0.0
 10
-2.177859
 20
45.190503
 30
0.0
 10
-2.303201
 20
45.472361
 30
0.0
 10
-2.417079
 20
45.763245
 30
0.0
  0
SPLINE
  5
1c2
100
AcDbEntity
  8
Body
 62
7
100
AcDbSpline
 70
8
 71
3
 72
8
 73
4
 74
0
 40
0
 40
0
 40
0
 40
0
 40
1
 40
1
 40
1
 40
1
 10
-2.417079
 20
45.763245
 30
0.0
 10
-3.892506
 20
34.826312
 30
0.0
 10
4.317316
 20
31.549360
 30
0.0
 10
13.963385
 20
30.927285
 30
0.0
  0
LWPOLYLINE
  5
1c3
100
AcDbEntity
  8
Body
 62
7
100
AcDbPolyline
 90
2
 70
1
 10
21.878285
 20
89.180817
 30
0.0
 10
15.612070
 20
86.602231
 30
0.0
  0
SPLINE
  5
1c4
100
AcDbEntity
  8
Body
 62
7
100
AcDbSpline
 70
8
 71
3
 72
8
 73
4
 74
0
 40
0
 40
0
 40
0
 40
0
 40
1
 40
1
 40
1
 40
1
 10
38.717361
 20
31.154384
 30
0.0
 10
42.588838
 20
31.291919
 30
0.0
 10
65.330090
 20
34.002376
 30
0.0
 10
63.274002
 20
46.240045
 30
0.0
  0
SPLINE
  5
1c5
100
AcDbEntity
  8
Body
 62
7
100
AcDbSpline
 70
8
 71
3
 72
8
 73
4
 74
0
 40
0
 40
0
 40
0
 40
0
 40
1
 40
1
 40
1
 40
1
 10
63.274002
 20
46.240045
 30
0.0
 10
63.260032
 20
46.236433
 30
0.0
 10
63.241990
 20
46.227740
 30
0.0
 10
63.227148
 20
46.222971
 30
0.0
  0
SPLINE
  5
1c6
100
AcDbEntity
  8
Body
 62
7
100
AcDbSpline
 70
8
 71
3
 72
8
 73
4
 74
0
 40
0
 40
0
 40
0
 40
0
 40
1
 40
1
 40
1
 40
1
 10
63.227148
 20
46.222971
 30
0.0
 10
63.431372
 20
47.433473
 30
0.0
 10
63.640298
 20
48.593934
 30
0.0
 10
63.846716
 20
49.762325
 30
0.0
  0
SPLINE
  5
1c7
100
AcDbEntity
  8
Body
 62
7
100
AcDbSpline
 70
8
 71
3
 72
8
 73
4
 74
0
 40
0
 40
0
 40
0
 40
0
 40
1
 40
1
 40
1
 40
1
 10
63.846716
 20
49.762325
 30
0.0
 10
65.556243
 20
49.644530
 30
0.0
 10
67.015929
 20
50.166129
 30
0.0
 10
67.919092
 20
51.217533
 30
0.0
  0
SPLINE
  5
1c8
100
AcDbEntity
  8
Body
 62
7
100
AcDbSpline
 70
8
 71
3
 72
8
 73
4
 74
0
 40
0
 40
0
 40
0
 40
0
 40
1
 40
1
 40
1
 40
1
 10
67.919092
 20
51.217533
 30
0.0
 10
69.845762
 20
53.462769
 30
0.0
 10
68.765591
 20
57.464859
 30
0.0
 10
65.506425
 20
60.156592
 30
0.0
  0
SPLINE
  5
1c9
100
AcDbEntity
  8
Body
 62
7
100
AcDbSpline
 70
8
 71
3
 72
8
 73
4
 74
0
 40
0
 40
0
 40
0
 40
0
 40
1
 40
1
 40
1
 40
1
 10
65.506425
 20
60.156592
 30
0.0
 10
65.407251
 20
60.235705
 30
0.0
 10
65.306715
 20
60.313082
 30
0.0
 10
65.204910
 20
60.388652
 30
0.0
  0
SPLINE
  5
1ca
100
AcDbEntity
  8
Body
 62
7
100
AcDbSpline
 70
8
 71
3
 72
8
 73
4
 74
0
 40
0
 40
0
 40
0
 40
0
 40
1
 40
1
 40
1
 40
1
 10
65.204910
 20
60.388652
 30
0.0
 10
65.406913
 20
63.324565
 30
0.0
 10
65.517674
 20
66.812981
 30
0.0
 10
65.480517
 20
71.222788
 30
0.0
  0
SPLINE
  5
1cb
100
AcDbEntity
  8
Body
 62
7
100
AcDbSpline
 70
8
 71
3
 72
8
 73
4
 74
0
 40
0
 40
0
 40
0
 40
0
 40
1
 40
1
 40
1
 40
1
 10
65.480517
 20
71.222788
 30
0.0
 10
64.758172
 20
79.253977
 30
0.0
 10
53.153118
 20
87.819269
 30
0.0
 10
42.693827
 20
87.552541
 30
0.0
  0
LWPOLYLINE
  5
1cc
100
AcDbEntity
  8
Body
 62
7
100
AcDbPolyline
 90
6
 70
1
 10
13.963385
 20
30.927285
 30
0.0
 10
22.003963
 20
31.001149
 30
0.0
 10
22.003963
 20
29.559168
 30
0.0
 10
33.561844
 20
29.559168
 30
0.0
 10
33.561844
 20
31.106982
 30
0.0
 10
38.717361
 20
31.154384
 30
0.0
  0
SPLINE
  5
1cd
100
AcDbEntity
  8
Face
 62
7
100
AcDbSpline
 70
8
 71
3
 72
8
 73
4
 74
0
 40
0
 40
0
 40
0
 40
0
 40
1
 40
1
 40
1
 40
1
 10
32.465478
 20
143.400007
 30
0.0
 10
23.735260
 20
143.450251
 30
0.0
 10
14.754346
 20
139.365248
 30
0.0
 10
8.822201
 20
129.235979
 30
0.0
  0
SPLINE
  5
1ce
100
AcDbEntity
  8
Face
 62
7
100
AcDbSpline
 70
8
 71
3
 72
8
 73
4
 74
0
 40
0
 40
0
 40
0
 40
0
 40
1
 40
1
 40
1
 40
1
 10
8.822201
 20
129.235979
 30
0.0
 10
6.051855
 20
124.505553
 30
0.0
 10
6.992379
 20
118.037985
 30
0.0
 10
5.437187
 20
112.544078
 30
0.0
  0
SPLINE
  5
1cf
100
AcDbEntity
  8
Face
 62
7
100
AcDbSpline
 70
8
 71
3
 72
8
 73
4
 74
0
 40
0
 40
0
 40
0
 40
0
 40
1
 40
1
 40
1
 40
1
 10
5.437187
 20
112.544078
 30
0.0
 10
5.225399
 20
110.420618
 30
0.0
 10
4.138087
 20
109.301466
 30
0.0
 10
3.749366
 20
109.074729
 30
0.0
  0
SPLINE
  5
1d0
100
AcDbEntity
  8
Face
 62
7
100
AcDbSpline
 70
8
 71
3
 72
8
 73
4
 74
0
 40
0
 40
0
 40
0
 40
0
 40
1
 40
1
 40
1
 40
1
 10
3.749366
 20
109.074729
 30
0.0
 10
3.753103
 20
109.071907
 30
0.0
 10
3.757734
 20
109.068153
 30
0.0
 10
3.761493
 20
109.065359
 30
0.0
  0
SPLINE
  5
1d1
100
AcDbEntity
  8
Face
 62
7
100
AcDbSpline
 70
8
 71
3
 72
8
 73
4
 74
0
 40
0
 40
0
 40
0
 40
0
 40
1
 40
1
 40
1
 40
1
 10
3.761493
 20
109.065359
 30
0.0
 10
3.756574
 20
109.067899
 30
0.0
 10
3.751537
 20
109.070072
 30
0.0
 10
3.746612
 20
109.072527
 30
0.0
  0
SPLINE
  5
1d2
100
AcDbEntity
  8
Face
 62
7
100
AcDbSpline
 70
8
 71
3
 72
8
 73
4
 74
0
 40
0
 40
0
 40
0
 40
0
 40
1
 40
1
 40
1
 40
1
 10
3.746612
 20
109.072527
 30
0.0
 10
3.747487
 20
109.073092
 30
0.0
 10
3.748503
 20
109.074221
 30
0.0
 10
3.749378
 20
109.074785
 30
0.0
  0
SPLINE
  5
1d3
100
AcDbEntity
  8
Face
 62
7
100
AcDbSpline
 70
8
 71
3
 72
8
 73
4
 74
0
 40
0
 40
0
 40
0
 40
0
 40
1
 40
1
 40
1
 40
1
 10
3.749378
 20
109.074785
 30
0.0
 10
3.720556
 20
109.096037
 30
0.0
 10
3.683615
 20
109.128235
 30
0.0
 10
3.656222
 20
109.147545
 30
0.0
  0
SPLINE
  5
1d4
100
AcDbEntity
  8
Face
 62
7
100
AcDbSpline
 70
8
 71
3
 72
8
 73
4
 74
0
 40
0
 40
0
 40
0
 40
0
 40
1
 40
1
 40
1
 40
1
 10
3.656222
 20
109.147545
 30
0.0
 10
3.649407
 20
109.138203
 30
0.0
 10
3.648791
 20
109.133180
 30
0.0
 10
3.643545
 20
109.124939
 30
0.0
  0
SPLINE
  5
1d5
100
AcDbEntity
  8
Face
 62
7
100
AcDbSpline
 70
8
 71
3
 72
8
 73
4
 74
0
 40
0
 40
0
 40
0
 40
0
 40
1
 40
1
 40
1
 40
1
 10
3.643545
 20
109.124939
 30
0.0
 10
3.604115
 20
109.144271
 30
0.0
 10
3.566636
 20
109.164233
 30
0.0
 10
3.526687
 20
109.183367
 30
0.0
  0
SPLINE
  5
1d6
100
AcDbEntity
  8
Face
 62
7
100
AcDbSpline
 70
8
 71
3
 72
8
 73
4
 74
0
 40
0
 40
0
 40
0
 40
0
 40
1
 40
1
 40
1
 40
1
 10
3.526687
 20
109.183367
 30
0.0
 10
2.955496
 20
109.456968
 30
0.0
 10
1.897724
 20
109.502569
 30
0.0
 10
0.803684
 20
109.169595
 30
0.0
  0
SPLINE
  5
1d7
100
AcDbEntity
  8
Face
 62
7
100
AcDbSpline
 70
8
 71
3
 72
8
 73
4
 74
0
 40
0
 40
0
 40
0
 40
0
 40
1
 40
1
 40
1
 40
1
 10
0.803684
 20
109.169595
 30
0.0
 10
-12.837752
 20
101.911093
 30
0.0
 10
5.385847
 20
99.044334
 30
0.0
 10
-8.012453
 20
95.482370
 30
0.0
  0
SPLINE
  5
1d8
100
AcDbEntity
  8
Face
 62
7
100
AcDbSpline
 70
8
 71
3
 72
8
 73
4
 74
0
 40
0
 40
0
 40
0
 40
0
 40
1
 40
1
 40
1
 40
1
 10
-8.012453
 20
95.482370
 30
0.0
 10
-4.627303
 20
94.981750
 30
0.0
 10
-1.689430
 20
95.138593
 30
0.0
 10
0.727616
 20
95.737581
 30
0.0
  0
SPLINE
  5
1d9
100
AcDbEntity
  8
Face
 62
7
100
AcDbSpline
 70
8
 71
3
 72
8
 73
4
 74
0
 40
0
 40
0
 40
0
 40
0
 40
1
 40
1
 40
1
 40
1
 10
0.727616
 20
95.737581
 30
0.0
 10
-16.721476
 20
76.039046
 30
0.0
 10
36.655000
 20
80.323710
 30
0.0
 10
24.252382
 20
66.998319
 30
0.0
  0
SPLINE
  5
1da
100
AcDbEntity
  8
Face
 62
7
100
AcDbSpline
 70
8
 71
3
 72
8
 73
4
 74
0
 40
0
 40
0
 40
0
 40
0
 40
1
 40
1
 40
1
 40
1
 10
24.252382
 20
66.998319
 30
0.0
 10
22.948440
 20
63.645435
 30
0.0
 10
80.680498
 20
92.145205
 30
0.0
 10
55.543219
 20
101.616846
 30
0.0
  0
SPLINE
  5
1db
100
AcDbEntity
  8
Face
 62
7
100
AcDbSpline
 70
8
 71
3
 72
8
 73
4
 74
0
 40
0
 40
0
 40
0
 40
0
 40
1
 40
1
 40
1
 40
1
 10
55.543219
 20
101.616846
 30
0.0
 10
57.911055
 20
102.498420
 30
0.0
 10
60.098723
 20
103.751538
 30
0.0
 10
61.918023
 20
105.446136
 30
0.0
  0
SPLINE
  5
1dc
100
AcDbEntity
  8
Face
 62
7
100
AcDbSpline
 70
8
 71
3
 72
8
 73
4
 74
0
 40
0
 40
0
 40
0
 40
0
 40
1
 40
1
 40
1
 40
1
 10
61.918023
 20
105.446136
 30
0.0
 10
62.344097
 20
106.387987
 30
0.0
 10
61.504774
 20
105.641227
 30
0.0
 10
58.778851
 20
105.609847
 30
0.0
  0
SPLINE
  5
1dd
100
AcDbEntity
  8
Face
 62
7
100
AcDbSpline
 70
8
 71
3
 72
8
 73
4
 74
0
 40
0
 40
0
 40
0
 40
0
 40
1
 40
1
 40
1
 40
1
 10
58.778851
 20
105.609847
 30
0.0
 10
59.771190
 20
116.948853
 30
0.0
 10
58.327629
 20
128.546394
 30
0.0
 10
53.669638
 20
133.891601
 30
0.0
  0
SPLINE
  5
1de
100
AcDbEntity
  8
Face
 62
7
100
AcDbSpline
 70
8
 71
3
 72
8
 73
4
 74
0
 40
0
 40
0
 40
0
 40
0
 40
1
 40
1
 40
1
 40
1
 10
53.669638
 20
133.891601
 30
0.0
 10
48.646117
 20
139.656272
 30
0.0
 10
40.666602
 20
143.352864
 30
0.0
 10
32.465490
 20
143.400066
 30
0.0
  0
LWPOLYLINE
  5
1df
100
AcDbEntity
  8
Body
 62
7
100
AcDbPolyline
 90
4
 70
1
 10
42.693827
 20
87.552541
 30
0.0
 10
37.958889
 20
89.180817
 30
0.0
 10
21.878285
 20
89.180817
 30
0.0
 10
21.878285
 20
89.180817
 30
0.0
  0
SPLINE
  5
1e0
100
AcDbEntity
  8
Face
 62
7
100
AcDbSpline
 70
8
 71
3
 72
8
 73
4
 74
0
 40
0
 40
0
 40
0
 40
0
 40
1
 40
1
 40
1
 40
1
 10
17.505489
 20
112.511644
 30
0.0
 10
17.861547
 20
115.017783
 30
0.0
 10
19.843845
 20
117.512898
 30
0.0
 10
22.814526
 20
117.589973
 30
0.0
  0
SPLINE
  5
1e1
100
AcDbEntity
  8
Face
 62
7
100
AcDbSpline
 70
8
 71
3
 72
8
 73
4
 74
0
 40
0
 40
0
 40
0
 40
0
 40
1
 40
1
 40
1
 40
1
 10
22.814526
 20
117.589973
 30
0.0
 10
24.221546
 20
117.626481
 30
0.0
 10
26.815917
 20
116.289341
 30
0.0
 10
26.444610
 20
113.515209
 30
0.0
  0
SPLINE
  5
1e2
100
AcDbEntity
  8
Face
 62
7
100
AcDbSpline
 70
8
 71
3
 72
8
 73
4
 74
0
 40
0
 40
0
 40
0
 40
0
 40
1
 40
1
 40
1
 40
1
 10
26.444610
 20
113.515209
 30
0.0
 10
24.366521
 20
114.211087
 30
0.0
 10
23.240427
 20
114.386866
 30
0.0
 10
22.132365
 20
114.282989
 30
0.0
  0
SPLINE
  5
1e3
100
AcDbEntity
  8
Face
 62
7
100
AcDbSpline
 70
8
 71
3
 72
8
 73
4
 74
0
 40
0
 40
0
 40
0
 40
0
 40
1
 40
1
 40
1
 40
1
 10
22.132365
 20
114.282989
 30
0.0
 10
20.508887
 20
114.130801
 30
0.0
 10
19.283784
 20
113.563610
 30
0.0
 10
17.505489
 20
112.511644
 30
0.0
  0
LWPOLYLINE
  5
1e4
100
AcDbEntity
  8
Face
 62
7
100
AcDbPolyline
 90
2
 70
1
 10
32.465490
 20
143.400066
 30
0.0
 10
32.465478
 20
143.400007
 30
0.0
  0
SPLINE
  5
1e5
100
AcDbEntity
  8
Face
 62
7
100
AcDbSpline
 70
8
 71
3
 72
8
 73
4
 74
0
 40
0
 40
0
 40
0
 40
0
 40
1
 40
1
 40
1
 40
1
 10
20.128825
 20
113.947833
 30
0.0
 10
20.639433
 20
115.793787
 30
0.0
 10
24.180385
 20
116.252736
 30
0.0
 10
24.498756
 20
114.145312
 30
0.0
  0
SPLINE
  5
1e6
100
AcDbEntity
  8
Face
 62
7
100
AcDbSpline
 70
8
 71
3
 72
8
 73
4
 74
0
 40
0
 40
0
 40
0
 40
0
 40
1
 40
1
 40
1
 40
1
 10
24.498756
 20
114.145312
 30
0.0
 10
23.175697
 20
114.285427
 30
0.0
 10
21.518342
 20
114.270645
 30
0.0
 10
20.128825
 20
113.947833
 30
0.0
  0
LWPOLYLINE
  5
1e7
100
AcDbEntity
  8
Face
 62
7
100
AcDbPolyline
 90
2
 70
1
 10
17.505489
 20
112.511644
 30
0.0
 10
17.505489
 20
112.511644
 30
0.0
  0
SPLINE
  5
1e8
100
AcDbEntity
  8
Face
 62
7
100
AcDbSpline
 70
8
 71
3
 72
8
 73
4
 74
0
 40
0
 40
0
 40
0
 40
0
 40
1
 40
1
 40
1
 40
1
 10
42.667253
 20
112.306649
 30
0.0
 10
42.311196
 20
114.812788
 30
0.0
 10
40.328898
 20
117.307903
 30
0.0
 10
37.358216
 20
117.384978
 30
0.0
  0
SPLINE
  5
1e9
100
AcDbEntity
  8
Face
 62
7
100
AcDbSpline
 70
8
 71
3
 72
8
 73
4
 74
0
 40
0
 40
0
 40
0
 40
0
 40
1
 40
1
 40
1
 40
1
 10
37.358216
 20
117.384978
 30
0.0
 10
35.951197
 20
117.421486
 30
0.0
 10
33.356827
 20
116.084346
 30
0.0
 10
33.728132
 20
113.310214
 30
0.0
  0
SPLINE
  5
1ea
100
AcDbEntity
  8
Face
 62
7
100
AcDbSpline
 70
8
 71
3
 72
8
 73
4
 74
0
 40
0
 40
0
 40
0
 40
0
 40
1
 40
1
 40
1
 40
1
 10
33.728132
 20
113.310214
 30
0.0
 10
35.806222
 20
114.006092
 30
0.0
 10
36.932317
 20
114.181872
 30
0.0
 10
38.040378
 20
114.077994
 30
0.0
  0
SPLINE
  5
1eb
100
AcDbEntity
  8
Face
 62
7
100
AcDbSpline
 70
8
 71
3
 72
8
 73
4
 74
0
 40
0
 40
0
 40
0
 40
0
 40
1
 40
1
 40
1
 40
1
 10
38.040378
 20
114.077994
 30
0.0
 10
39.663855
 20
113.925806
 30
0.0
 10
40.888960
 20
113.358615
 30
0.0
 10
42.667253
 20
112.306649
 30
0.0
  0
LWPOLYLINE
  5
1ec
100
AcDbEntity
  8
Face
 62
7
100
AcDbPolyline
 90
2
 70
1
 10
20.128825
 20
113.947833
 30
0.0
 10
20.128825
 20
113.947833
 30
0.0
  0
SPLINE
  5
1ed
100
AcDbEntity
  8
Face
 62
7
100
AcDbSpline
 70
8
 71
3
 72
8
 73
4
 74
0
 40
0
 40
0
 40
0
 40
0
 40
1
 40
1
 40
1
 40
1
 10
40.043918
 20
113.742838
 30
0.0
 10
39.533311
 20
115.588792
 30
0.0
 10
35.992359
 20
116.047741
 30
0.0
 10
35.673987
 20
113.940318
 30
0.0
  0
SPLINE
  5
1ee
100
AcDbEntity
  8
Face
 62
7
100
AcDbSpline
 70
8
 71
3
 72
8
 73
4
 74
0
 40
0
 40
0
 40
0
 40
0
 40
1
 40
1
 40
1
 40
1
 10
35.673987
 20
113.940318
 30
0.0
 10
36.997045
 20
114.080432
 30
0.0
 10
38.654400
 20
114.065650
 30
0.0
 10
40.043918
 20
113.742838
 30
0.0
  0
LWPOLYLINE
  5
1ef
100
AcDbEntity
  8
Face
 62
7
100
AcDbPolyline
 90
2
 70
1
 10
42.667253
 20
112.306649
 30
0.0
 10
42.667253
 20
112.306649
 30
0.0
  0
SPLINE
  5
1f0
100
AcDbEntity
  8
Face
 62
7
100
AcDbSpline
 70
8
 71
3
 72
8
 73
4
 74
0
 40
0
 40
0
 40
0
 40
0
 40
1
 40
1
 40
1
 40
1
 10
25.937069
 20
118.690072
 30
0.0
 10
21.955269
 20
119.516729
 30
0.0
 10
19.693828
 20
118.222052
 30
0.0
 10
16.850900
 20
116.386868
 30
0.0
  0
SPLINE
  5
1f1
100
AcDbEntity
  8
Face
 62
7
100
AcDbSpline
 70
8
 71
3
 72
8
 73
4
 74
0
 40
0
 40
0
 40
0
 40
0
 40
1
 40
1
 40
1
 40
1
 10
16.850900
 20
116.386868
 30
0.0
 10
15.249472
 20
118.508999
 30
0.0
 10
14.872161
 20
118.407720
 30
0.0
 10
17.283606
 20
120.128579
 30
0.0
  0
SPLINE
  5
1f2
100
AcDbEntity
  8
Face
 62
7
100
AcDbSpline
 70
8
 71
3
 72
8
 73
4
 74
0
 40
0
 40
0
 40
0
 40
0
 40
1
 40
1
 40
1
 40
1
 10
17.283606
 20
120.128579
 30
0.0
 10
17.462201
 20
121.802876
 30
0.0
 10
18.408254
 20
121.292065
 30
0.0
 10
19.240227
 20
121.278188
 30
0.0
  0
SPLINE
  5
1f3
100
AcDbEntity
  8
Face
 62
7
100
AcDbSpline
 70
8
 71
3
 72
8
 73
4
 74
0
 40
0
 40
0
 40
0
 40
0
 40
1
 40
1
 40
1
 40
1
 10
19.240227
 20
121.278188
 30
0.0
 10
20.896494
 20
122.573078
 30
0.0
 10
21.222189
 20
122.630343
 30
0.0
 10
22.952708
 20
121.819115
 30
0.0
  0
SPLINE
  5
1f4
100
AcDbEntity
  8
Face
 62
7
100
AcDbSpline
 70
8
 71
3
 72
8
 73
4
 74
0
 40
0
 40
0
 40
0
 40
0
 40
1
 40
1
 40
1
 40
1
 10
22.952708
 20
121.819115
 30
0.0
 10
26.086609
 20
122.544130
 30
0.0
 10
26.040503
 20
120.253595
 30
0.0
 10
25.937069
 20
118.690072
 30
0.0
  0
LWPOLYLINE
  5
1f5
100
AcDbEntity
  8
Face
 62
7
100
AcDbPolyline
 90
2
 70
1
 10
40.043918
 20
113.742838
 30
0.0
 10
40.043918
 20
113.742838
 30
0.0
  0
SPLINE
  5
1f6
100
AcDbEntity
  8
Face
 62
7
100
AcDbSpline
 70
8
 71
3
 72
8
 73
4
 74
0
 40
0
 40
0
 40
0
 40
0
 40
1
 40
1
 40
1
 40
1
 10
34.355659
 20
118.203758
 30
0.0
 10
38.337459
 20
119.030415
 30
0.0
 10
40.598900
 20
117.735738
 30
0.0
 10
43.441829
 20
115.900554
 30
0.0
  0
SPLINE
  5
1f7
100
AcDbEntity
  8
Face
 62
7
100
AcDbSpline
 70
8
 71
3
 72
8
 73
4
 74
0
 40
0
 40
0
 40
0
 40
0
 40
1
 40
1
 40
1
 40
1
 10
43.441829
 20
115.900554
 30
0.0
 10
45.043257
 20
118.022685
 30
0.0
 10
45.420568
 20
117.921406
 30
0.0
 10
43.009123
 20
119.642265
 30
0.0
  0
SPLINE
  5
1f8
100
AcDbEntity
  8
Face
 62
7
100
AcDbSpline
 70
8
 71
3
 72
8
 73
4
 74
0
 40
0
 40
0
 40
0
 40
0
 40
1
 40
1
 40
1
 40
1
 10
43.009123
 20
119.642265
 30
0.0
 10
42.830527
 20
121.316562
 30
0.0
 10
41.884473
 20
120.805751
 30
0.0
 10
41.052502
 20
120.791874
 30
0.0
  0
SPLINE
  5
1f9
100
AcDbEntity
  8
Face
 62
7
100
AcDbSpline
 70
8
 71
3
 72
8
 73
4
 74
0
 40
0
 40
0
 40
0
 40
0
 40
1
 40
1
 40
1
 40
1
 10
41.052502
 20
120.791874
 30
0.0
 10
39.396233
 20
122.086764
 30
0.0
 10
39.070540
 20
122.144029
 30
0.0
 10
37.340021
 20
121.332801
 30
0.0
  0
SPLINE
  5
1fa
100
AcDbEntity
  8
Face
 62
7
100
AcDbSpline
 70
8
 71
3
 72
8
 73
4
 74
0
 40
0
 40
0
 40
0
 40
0
 40
1
 40
1
 40
1
 40
1
 10
37.340021
 20
121.332801
 30
0.0
 10
34.206118
 20
122.057816
 30
0.0
 10
34.252225
 20
119.767281
 30
0.0
 10
34.355659
 20
118.203758
 30
0.0
  0
LWPOLYLINE
  5
1fb
100
AcDbEntity
  8
Face
 62
7
100
AcDbPolyline
 90
2
 70
1
 10
25.937069
 20
118.690072
 30
0.0
 10
25.937069
 20
118.690072
 30
0.0
  0
SPLINE
  5
1fc
100
AcDbEntity
  8
Face
 62
7
100
AcDbSpline
 70
8
 71
3
 72
8
 73
4
 74
0
 40
0
 40
0
 40
0
 40
0
 40
1
 40
1
 40
1
 40
1
 10
24.969613
 20
101.925943
 30
0.0
 10
26.192030
 20
101.287367
 30
0.0
 10
26.568988
 20
100.388650
 30
0.0
 10
29.381348
 20
100.239287
 30
0.0
  0
SPLINE
  5
1fd
100
AcDbEntity
  8
Face
 62
7
100
AcDbSpline
 70
8
 71
3
 72
8
 73
4
 74
0
 40
0
 40
0
 40
0
 40
0
 40
1
 40
1
 40
1
 40
1
 10
29.381348
 20
100.239287
 30
0.0
 10
32.092564
 20
100.093920
 30
0.0
 10
33.821762
 20
100.734163
 30
0.0
 10
35.196046
 20
101.658342
 30
0.0
  0
SPLINE
  5
1fe
100
AcDbEntity
  8
Face
 62
7
100
AcDbSpline
 70
8
 71
3
 72
8
 73
4
 74
0
 40
0
 40
0
 40
0
 40
0
 40
1
 40
1
 40
1
 40
1
 10
35.196046
 20
101.658342
 30
0.0
 10
31.729937
 20
101.953931
 30
0.0
 10
27.592559
 20
102.715883
 30
0.0
 10
24.969613
 20
101.925943
 30
0.0
  0
LWPOLYLINE
  5
1ff
100
AcDbEntity
  8
Face
 62
7
100
AcDbPolyline
 90
2
 70
1
 10
34.355659
 20
118.203758
 30
0.0
 10
34.355659
 20
118.203758
 30
0.0
  0
LWPOLYLINE
  5
200
100
AcDbEntity
  8
Face
 62
7
100
AcDbPolyline
 90
2
 70
1
 10
24.969613
 20
101.925943
 30
0.0
 10
24.969613
 20
101.925943
 30
0.0
  0
ENDSEC
  0
SECTION
  2
OBJECTS
  0
DICTIONARY
  5
C
330
0
100
AcDbDictionary
  3
ACAD_GROUP
350
D
  3
ACAD_MLINESTYLE
350
17
  0
DICTIONARY
  5
D
330
C
100
AcDbDictionary
  0
DICTIONARY
  5
1A
330
C
100
AcDbDictionary
  0
DICTIONARY
  5
17
330
C
100
AcDbDictionary
  3
STANDARD
350
18
  0
DICTIONARY
  5
19
330
C
100
AcDbDictionary
  0
ENDSEC
  0
EOF
